<?xml version="1.0" encoding="utf-8"?>
<!-- Generator: Adobe Illustrator 19.2.1, SVG Export Plug-In . SVG Version: 6.00 Build 0)  -->
<svg version="1.1" id="Capa_1" xmlns="http://www.w3.org/2000/svg" xmlns:xlink="http://www.w3.org/1999/xlink" x="0px" y="0px"
	 viewBox="0 0 102 102" style="enable-background:new 0 0 102 102;" xml:space="preserve">
<style type="text/css">
	.st0{fill:#FFFFFF;}
	.st1{fill:#FFFFFF;stroke:#565763;stroke-width:3;stroke-linecap:round;stroke-linejoin:round;stroke-miterlimit:10;}
</style>
<g>
	<g>
		<path class="st0" d="M28.7,88.8c-5,0-9-4-9-9c0-5,4-9,9-9s9,4,9,9C37.7,84.7,33.6,88.8,28.7,88.8z M28.7,75.2
			c-2.5,0-4.6,2.1-4.6,4.6c0,2.5,2.1,4.6,4.6,4.6s4.6-2.1,4.6-4.6C33.3,77.2,31.2,75.2,28.7,75.2z"/>
	</g>
	<g>
		<path class="st0" d="M72.9,88.8c-5,0-9-4-9-9c0-5,4-9,9-9c5,0,9,4,9,9C81.9,84.7,77.9,88.8,72.9,88.8z M72.9,75.2
			c-2.5,0-4.6,2.1-4.6,4.6c0,2.5,2.1,4.6,4.6,4.6c2.5,0,4.6-2.1,4.6-4.6C77.5,77.2,75.4,75.2,72.9,75.2z"/>
	</g>
	<g>
		<path class="st0" d="M29.6,73.8c-1.2,0-2.2-1-2.2-2.2v-8c0-1.2,1-2.2,2.2-2.2c1.2,0,2.2,1,2.2,2.2v8
			C31.8,72.8,30.8,73.8,29.6,73.8z"/>
	</g>
	<g>
		<path class="st0" d="M66.1,82H35.5c-1.2,0-2.2-1-2.2-2.2c0-1.2,1-2.2,2.2-2.2h30.6c1.2,0,2.2,1,2.2,2.2C68.3,81,67.3,82,66.1,82z"
			/>
	</g>
	<path class="st0" d="M91.1,25.2c-1.1-0.5-2.4-0.2-2.9,0.9L73.2,61H26V15.5c0-1.2-1.1-2.5-2.4-2.5H11.8c-1.2,0-2.2,1.3-2.2,2.5
		s1,2.5,2.2,2.5H21v45.6c0,1.2,1.4,2.4,2.6,2.4h51c0.9,0,1.7-0.6,2-1.4l15.5-36.5C92.7,27,92.2,25.6,91.1,25.2z"/>
	<g>
		<path class="st1" d="M31.6,25.8"/>
	</g>
	<g>
		<path class="st0" d="M77.4,28H33.7c-1.2,0-2.2-1-2.2-2.2c0-1.2,1-2.2,2.2-2.2h43.7c1.2,0,2.2,1,2.2,2.2C79.6,27,78.6,28,77.4,28z"
			/>
	</g>
	<g>
		<path class="st0" d="M71.4,40.6H33.7c-1.2,0-2.2-1-2.2-2.2c0-1.2,1-2.2,2.2-2.2h37.6c1.2,0,2.2,1,2.2,2.2
			C73.6,39.6,72.6,40.6,71.4,40.6z"/>
	</g>
	<g>
		<path class="st0" d="M65.6,53.3H33.7c-1.2,0-2.2-1-2.2-2.2c0-1.2,1-2.2,2.2-2.2h31.9c1.2,0,2.2,1,2.2,2.2
			C67.9,52.3,66.9,53.3,65.6,53.3z"/>
	</g>
</g>
</svg>
