<svg version="1.1" id="Capa_1" xmlns="http://www.w3.org/2000/svg" xmlns:xlink="http://www.w3.org/1999/xlink" x="0px" y="0px"
	 viewBox="0 0 47.3 47.3" style="enable-background:new 0 0 47.3 47.3;" xml:space="preserve">
<style type="text/css">
	.st0{fill:#727272;}
</style>
<g>
	<g>
		<path class="st0" d="M41.2,14.1h-35c-0.6,0-1-0.4-1-1s0.4-1,1-1h35c0.6,0,1,0.4,1,1S41.7,14.1,41.2,14.1z"/>
	</g>
	<g>
		<path class="st0" d="M41.2,24.7h-35c-0.6,0-1-0.4-1-1s0.4-1,1-1h35c0.6,0,1,0.4,1,1S41.7,24.7,41.2,24.7z"/>
	</g>
	<g>
		<path class="st0" d="M41.2,35.2h-35c-0.6,0-1-0.4-1-1s0.4-1,1-1h35c0.6,0,1,0.4,1,1S41.7,35.2,41.2,35.2z"/>
	</g>
</g>
</svg>