<?xml version="1.0" encoding="utf-8"?>
<!-- Generator: Adobe Illustrator 19.2.1, SVG Export Plug-In . SVG Version: 6.00 Build 0)  -->
<svg version="1.1" id="Capa_1" xmlns="http://www.w3.org/2000/svg" xmlns:xlink="http://www.w3.org/1999/xlink" x="0px" y="0px"
	 viewBox="0 0 184.1 32.7" style="enable-background:new 0 0 184.1 32.7;" xml:space="preserve">
<style type="text/css">
	.st0{fill:#FFFFFF;}
	.st1{fill:#00E00B;}
</style>
<g>
	<g>
		<g>
			<path class="st0" d="M53.3,23c-2.2,0-3.5-0.8-3.5-3v-6h-1.6v-2.8h1.6V8.4l3.4-0.5v3.3h2.6L55.7,14h-2.5v5.6
				c0,0.5,0.3,0.6,0.7,0.6s0.9,0,1.4-0.2l0.4,2.6C55,22.9,54.1,23,53.3,23z"/>
			<path class="st0" d="M60.6,18.2v0.3c0,1.3,0.5,1.7,2.1,1.7c1.1,0,2.5-0.2,3.5-0.5l0.5,2.6c-1,0.4-2.7,0.7-4.4,0.7
				c-3.8,0-5.2-1.9-5.2-4.7v-2.7c0-2.5,1.1-4.6,5-4.6s4.7,2.3,4.7,4.8v2.4C66.8,18.2,60.6,18.2,60.6,18.2z M63.6,15.1
				c0-0.8-0.2-1.5-1.4-1.5s-1.6,0.7-1.6,1.5v0.5h3V15.1z"/>
			<path class="st0" d="M79,18.7c0,2.7-1.2,4.3-3.9,4.3c-1,0-2.2-0.1-2.9-0.3v4.8L68.8,28V11.2h2.7l0.4,0.9c0.8-0.5,2.3-1.2,3.6-1.2
				c2.4,0,3.7,1.5,3.7,4.3v3.5H79z M72.2,19.8c0.6,0.1,1.5,0.3,2.2,0.3c0.9,0,1.2-0.5,1.2-1.3v-3.5c0-0.8-0.3-1.3-1.2-1.3
				c-0.8,0-1.7,0.5-2.2,0.9V19.8z"/>
			<path class="st0" d="M84.4,15.7v7.1H81V11.2h2.9l0.2,1.1c0.7-0.5,2.2-1.2,3.1-1.4l0.3,3.2C86.4,14.6,85.1,15.2,84.4,15.7z"/>
			<path class="st0" d="M92.4,18.2v0.3c0,1.3,0.5,1.7,2.1,1.7c1.1,0,2.5-0.2,3.5-0.5l0.5,2.6c-1,0.4-2.7,0.7-4.4,0.7
				c-3.8,0-5.2-1.9-5.2-4.7v-2.7c0-2.5,1.1-4.6,5-4.6s4.7,2.3,4.7,4.8v2.4C98.6,18.2,92.4,18.2,92.4,18.2z M95.4,15.1
				c0-0.8-0.2-1.5-1.4-1.5c-1.2,0-1.6,0.7-1.6,1.5v0.5h3V15.1z"/>
			<path class="st0" d="M104.5,23c-1.3,0-3.1-0.3-4.2-0.7l0.5-2.5c1,0.3,2.2,0.5,3.5,0.5c1,0,1.2-0.3,1.2-1s0-0.8-1.9-1.3
				c-2.8-0.7-3.1-1.5-3.1-3.6c0-2.5,1-3.5,4.4-3.5c0.9,0,2.5,0.1,3.5,0.4l-0.3,2.7c-1-0.2-2.3-0.3-3.2-0.3c-1,0-1.2,0.3-1.2,0.8
				c0,0.7,0.1,0.8,1.5,1.1c3.3,0.7,3.5,1.5,3.5,3.8C108.8,21.7,107.8,23,104.5,23z"/>
			<path class="st0" d="M115.4,23c-2.2,0-3.5-0.8-3.5-3v-6h-1.6v-2.8h1.6V8.4l3.4-0.5v3.3h2.6l-0.2,2.8h-2.5v5.6
				c0,0.5,0.3,0.6,0.7,0.6c0.4,0,0.9,0,1.4-0.2l0.4,2.6C117.2,22.9,116.2,23,115.4,23z"/>
			<path class="st0" d="M119.3,18.3v-2.7c0-2.4,1.1-4.7,5.2-4.7c4.1,0,5.2,2.3,5.2,4.7v2.7c0,2.4-1.1,4.7-5.2,4.7
				C120.5,23,119.3,20.7,119.3,18.3z M126.4,18.4v-2.9c0-1.1-0.6-1.7-1.8-1.7s-1.8,0.6-1.8,1.7v2.9c0,1.1,0.6,1.7,1.8,1.7
				S126.4,19.5,126.4,18.4z"/>
			<path class="st0" d="M132.9,22.8v-4h3.4v4H132.9z"/>
			<path class="st0" d="M143.2,18.4c0,1.2,0.5,1.7,1.9,1.7c0.9,0,1.5-0.1,2.4-0.3l0.4,2.9c-1.2,0.3-2,0.4-2.8,0.4
				c-3.8,0-5.3-1.4-5.3-4.7v-2.6c0-3.3,1.5-4.7,5.3-4.7c0.8,0,1.6,0.1,2.8,0.4l-0.4,2.9c-0.7-0.2-1.7-0.3-2.4-0.3
				c-1.4,0-1.9,0.5-1.9,1.7V18.4z"/>
			<path class="st0" d="M149.7,18.3v-2.7c0-2.4,1.1-4.7,5.2-4.7c4.1,0,5.2,2.3,5.2,4.7v2.7c0,2.4-1.1,4.7-5.2,4.7
				S149.7,20.7,149.7,18.3z M156.7,18.4v-2.9c0-1.1-0.6-1.7-1.8-1.7s-1.8,0.6-1.8,1.7v2.9c0,1.1,0.6,1.7,1.8,1.7
				C156.1,20.1,156.7,19.5,156.7,18.4z"/>
			<path class="st0" d="M168.8,22.9v-7.7c0-0.5-0.2-0.8-0.8-0.8s-1.8,0.4-2.5,0.8v7.7h-3.4V11.3h2.5l0.4,0.9
				c1.4-0.7,3.3-1.1,4.6-1.1c1,0,1.7,0.4,2.1,1.1c1.3-0.6,3-1.1,4.6-1.1c2,0,2.7,1.5,2.7,3.7v8.1h-3.4v-7.7c0-0.5-0.2-0.8-0.8-0.8
				s-1.8,0.4-2.5,0.8v7.7H168.8z"/>
		</g>
		<g>
			<path class="st0" d="M88.4,27.3v0.8c0,0-0.6-0.1-0.9-0.1c-0.7,0-0.9,0.3-0.9,1.1c0,0.9,0.1,1.1,0.9,1.1c0.3,0,0.9-0.1,0.9-0.1
				v0.8c0,0-0.8,0.2-1.3,0.2c-1.2,0-1.6-0.6-1.6-2.1c0-1.4,0.5-2,1.6-2C87.6,27.1,88.4,27.3,88.4,27.3z"/>
			<path class="st0" d="M92.9,29.1c0,1.2-0.4,2-1.8,2c-1.3,0-1.8-0.8-1.8-2s0.4-2,1.8-2C92.4,27.1,92.9,27.9,92.9,29.1z M91.8,29.1
				c0-0.8-0.2-1.1-0.7-1.1s-0.7,0.4-0.7,1.1c0,0.8,0.2,1.2,0.7,1.2S91.8,29.9,91.8,29.1z"/>
			<path class="st0" d="M94.1,31.1v-3.9h1v0.2c0,0,0.5-0.3,0.9-0.3s0.7,0.1,1,0.4c0,0,0.7-0.4,1.3-0.4c1.1,0,1.4,0.6,1.4,1.9v2.1h-1
				V29c0-0.6-0.1-1-0.5-1c-0.3,0-0.7,0.1-0.7,0.1s0,0.6,0,0.9v2h-1v-2c0-0.7-0.1-1-0.5-1c-0.3,0-0.7,0.1-0.7,0.1V31h-1.2V31.1z"/>
			<path class="st0" d="M104.4,27.2v3.9h-1v-0.2c0,0-0.6,0.3-1,0.3c-1.1,0-1.4-0.6-1.4-1.9v-2h1v2c0,0.7,0,1,0.5,1
				c0.4,0,0.7-0.1,0.7-0.1v-2.9L104.4,27.2L104.4,27.2z"/>
			<path class="st0" d="M105.7,31.1v-3.9h1v0.2c0,0,0.5-0.3,1-0.3c1.1,0,1.4,0.7,1.4,1.9v2.1h-1V29c0-0.6-0.1-1-0.6-1
				c-0.4,0-0.7,0.1-0.7,0.1V31h-1.1V31.1z"/>
			<path class="st0" d="M110.4,25.6h1v1.1h-1V25.6z M110.4,27.2h1v3.9h-1V27.2z"/>
			<path class="st0" d="M116.2,31.1h-1v-0.2c0,0-0.5,0.3-0.9,0.3c-1.2,0-1.5-0.7-1.5-2c0-1.4,0.6-2,1.6-2c0.3,0,0.8,0.1,0.8,0.1
				v-1.6h1V31.1z M115.1,30.1v-2c0,0-0.4-0.1-0.8-0.1s-0.6,0.3-0.6,1.1c0,0.8,0.1,1.1,0.6,1.1C114.8,30.2,115.1,30.1,115.1,30.1z"/>
			<path class="st0" d="M120.6,30c0,0.2,0,0.3,0.3,0.4v0.8c-0.5,0-0.8-0.1-1.1-0.3c0,0-0.6,0.3-1.1,0.3c-0.8,0-1.2-0.4-1.2-1.3
				s0.5-1.1,1.4-1.2l0.8-0.1v-0.2c0-0.3-0.1-0.4-0.5-0.4c-0.5,0-1.5,0.1-1.5,0.1v-0.7c0,0,0.8-0.2,1.6-0.2c1,0,1.4,0.4,1.4,1.3V30
				H120.6z M118.8,29.4c-0.3,0-0.4,0.2-0.4,0.4c0,0.3,0.1,0.5,0.4,0.5s0.8-0.1,0.8-0.1v-0.8H118.8z"/>
			<path class="st0" d="M125.3,31.1h-1v-0.2c0,0-0.5,0.3-0.9,0.3c-1.2,0-1.5-0.7-1.5-2c0-1.4,0.6-2,1.6-2c0.3,0,0.8,0.1,0.8,0.1
				v-1.6h1V31.1z M124.2,30.1v-2c0,0-0.4-0.1-0.8-0.1s-0.6,0.3-0.6,1.1c0,0.8,0.1,1.1,0.6,1.1C123.9,30.2,124.2,30.1,124.2,30.1z"/>
			<path class="st0" d="M132.3,31.1h-1v-0.2c0,0-0.5,0.3-0.9,0.3c-1.2,0-1.5-0.7-1.5-2c0-1.4,0.6-2,1.6-2c0.3,0,0.8,0.1,0.8,0.1
				v-1.6h1L132.3,31.1L132.3,31.1z M131.2,30.1v-2c0,0-0.4-0.1-0.8-0.1c-0.4,0-0.6,0.3-0.6,1.1c0,0.8,0.1,1.1,0.6,1.1
				C130.8,30.2,131.2,30.1,131.2,30.1z"/>
			<path class="st0" d="M136.8,30.2V31c0,0-0.9,0.2-1.6,0.2c-1.2,0-1.7-0.6-1.7-2s0.6-2.1,1.7-2.1c1.1,0,1.7,0.6,1.7,1.8l-0.1,0.7
				h-2.3c0,0.5,0.2,0.7,0.8,0.7C136,30.2,136.8,30.2,136.8,30.2z M135.9,28.8c0-0.6-0.2-0.8-0.7-0.8s-0.7,0.2-0.7,0.8H135.9z"/>
			<path class="st0" d="M140.4,27.2h1v0.2c0,0,0.5-0.3,0.9-0.3c1,0,1.5,0.6,1.5,2c0,1.7-0.6,2.1-1.8,2.1c-0.3,0-0.6-0.1-0.6-0.1v1.6
				h-1L140.4,27.2L140.4,27.2z M141.4,28.2v2c0,0,0.3,0,0.6,0c0.6,0,0.8-0.3,0.8-1.2c0-0.8-0.3-1.1-0.7-1.1
				C141.8,28,141.4,28.2,141.4,28.2z"/>
			<path class="st0" d="M145,27.2h1v0.4c0,0,0.7-0.4,1.2-0.5v1c-0.7,0.1-1.2,0.3-1.2,0.3V31h-1V27.2z"/>
			<path class="st0" d="M151.5,30.2V31c0,0-0.9,0.2-1.6,0.2c-1.2,0-1.7-0.6-1.7-2s0.6-2.1,1.7-2.1c1.1,0,1.7,0.6,1.7,1.8l-0.1,0.7
				h-2.3c0,0.5,0.2,0.7,0.8,0.7C150.7,30.2,151.5,30.2,151.5,30.2z M150.7,25.2l0.3,0.9l-2,0.6l-0.2-0.7L150.7,25.2z M150.6,28.8
				c0-0.6-0.2-0.8-0.7-0.8s-0.7,0.2-0.7,0.8H150.6z"/>
			<path class="st0" d="M155.7,28.1c0,0-1-0.1-1.4-0.1c-0.5,0-0.5,0.1-0.5,0.3c0,0.2,0.1,0.2,0.9,0.3c0.9,0.2,1.2,0.4,1.2,1.2
				c0,0.9-0.6,1.3-1.6,1.3c-0.6,0-1.5-0.2-1.5-0.2V30c0,0,1,0.1,1.4,0.1c0.5,0,0.6-0.1,0.6-0.3c0-0.2-0.1-0.2-0.8-0.4
				c-0.8-0.1-1.3-0.3-1.3-1.2c0-0.9,0.7-1.3,1.5-1.3c0.6,0,1.5,0.2,1.5,0.2L155.7,28.1z"/>
			<path class="st0" d="M158.2,28.1v1.6c0,0.4,0,0.6,0.3,0.6c0.2,0,0.6,0,0.6,0v0.8c0,0-0.5,0.1-0.8,0.1c-0.9,0-1.2-0.4-1.2-1.5
				v-1.6h-0.5v-0.9h0.5v-1.1h1v1.1h1v0.9H158.2z"/>
			<path class="st0" d="M163.3,30c0,0.2,0,0.3,0.3,0.4v0.8c-0.5,0-0.8-0.1-1.1-0.3c0,0-0.6,0.3-1.1,0.3c-0.8,0-1.2-0.4-1.2-1.3
				s0.5-1.1,1.4-1.2l0.8-0.1v-0.2c0-0.3-0.1-0.4-0.5-0.4c-0.5,0-1.5,0.1-1.5,0.1v-0.7c0,0,0.8-0.2,1.6-0.2c1,0,1.4,0.4,1.4,1.3
				L163.3,30L163.3,30z M161.6,29.4c-0.3,0-0.4,0.2-0.4,0.4c0,0.3,0.1,0.5,0.4,0.5c0.3,0,0.8-0.1,0.8-0.1v-0.8H161.6z"/>
			<path class="st0" d="M164.7,31.1v-3.9h1v0.2c0,0,0.5-0.3,0.9-0.3s0.7,0.1,1,0.4c0,0,0.7-0.4,1.3-0.4c1.1,0,1.4,0.6,1.4,1.9v2.1
				h-1V29c0-0.6-0.1-1-0.5-1c-0.3,0-0.7,0.1-0.7,0.1s0,0.6,0,0.9v2h-1v-2c0-0.7-0.1-1-0.5-1c-0.3,0-0.7,0.1-0.7,0.1V31h-1.2V31.1z"
				/>
			<path class="st0" d="M175.1,29.1c0,1.2-0.4,2-1.8,2c-1.3,0-1.8-0.8-1.8-2s0.4-2,1.8-2C174.6,27.1,175.1,27.9,175.1,29.1z
				 M174,29.1c0-0.8-0.2-1.1-0.7-1.1c-0.6,0-0.7,0.4-0.7,1.1c0,0.8,0.2,1.2,0.7,1.2C173.9,30.3,174,29.9,174,29.1z"/>
			<path class="st0" d="M179.1,28.1c0,0-1-0.1-1.4-0.1s-0.5,0.1-0.5,0.3c0,0.2,0.1,0.2,0.9,0.3c0.9,0.2,1.2,0.4,1.2,1.2
				c0,0.9-0.6,1.3-1.6,1.3c-0.6,0-1.5-0.2-1.5-0.2V30c0,0,1,0.1,1.4,0.1c0.5,0,0.6-0.1,0.6-0.3c0-0.2-0.1-0.2-0.8-0.4
				c-0.8-0.1-1.3-0.3-1.3-1.2c0-0.9,0.7-1.3,1.5-1.3c0.6,0,1.5,0.2,1.5,0.2L179.1,28.1z"/>
		</g>
		<g>
			<path class="st0" d="M182.2,9c1.2,0,2,0.9,2,2s-0.8,2-2,2s-2-0.9-2-2S181,9,182.2,9z M182.2,12.4c0.9,0,1.3-0.6,1.3-1.4
				c0-0.7-0.4-1.4-1.3-1.4c-0.9,0-1.3,0.6-1.3,1.4C180.8,11.8,181.3,12.4,182.2,12.4z M182.2,11.3H182v0.6h-0.4v-1.8h0.8
				c0.4,0,0.6,0.2,0.6,0.5v0.2c0,0.2-0.1,0.4-0.2,0.4l0.5,0.7h-0.5L182.2,11.3z M182.4,10.6c0-0.1-0.1-0.2-0.2-0.2h-0.3v0.4h0.3
				C182.4,10.9,182.4,10.8,182.4,10.6L182.4,10.6z"/>
		</g>
	</g>
	<g>
		<path class="st1" d="M27,27.5l1.4-4.7h-1.1l-3.6-11.6h3.5l2.4,8.2l2.4-8.2h3.5l-3.6,11.6l-1.5,4.7H27z"/>
		<path class="st1" d="M36.1,18.3v-2.7c0-2.4,1.1-4.7,5.2-4.7s5.2,2.3,5.2,4.7v2.7c0,2.4-1.1,4.7-5.2,4.7
			C37.3,23,36.1,20.7,36.1,18.3z M43.2,18.4v-2.9c0-1.1-0.6-1.7-1.8-1.7s-1.8,0.6-1.8,1.7v2.9c0,1.1,0.6,1.7,1.8,1.7
			C42.6,20.1,43.2,19.5,43.2,18.4z"/>
		<path class="st1" d="M20.3,17.3l-1.4-1.4l1-1c0.7-0.7,1.2-1.7,1.2-2.8s-0.4-2-1.2-2.8l-6.5-6.4c-0.2-0.2-0.5-0.5-0.8-0.6V0.9
			c0-0.5-0.9-0.9-2-0.9s-2,0.4-2,0.9v1.4C8.2,2.5,8,2.7,7.8,2.9L1.2,9.4c-1.5,1.5-1.5,4,0,5.6l1.4,1.4l-1,1
			c-0.7,0.7-1.2,1.7-1.2,2.8c0,1.1,0.4,2,1.2,2.8l6.2,6.4C8,29.6,8.3,29.8,8.6,30v1.4c0,0.5,0.9,0.9,2,0.9s2-0.4,2-0.9V30
			c0.3-0.2,0.5-0.4,0.8-0.6l6.9-6.6C21.8,21.3,21.8,18.8,20.3,17.3z M17.6,20.2l-6.8,6.5c-0.1,0.1-0.2,0.1-0.3,0l-6.2-6.1l-0.1-0.1
			c0,0,0-0.1,0.1-0.1l1.1-1l1.5,1.5c0.7,0.7,1.7,1.2,2.8,1.2s2-0.4,2.8-1.2l1.9-1.9l-2.7-2.7l-1.9,1.8l-0.1,0.1c0,0-0.1,0-0.1-0.1
			l-5.7-5.7c-0.1-0.1-0.1-0.2,0-0.3l6.6-6.5c0.1-0.1,0.2-0.1,0.3,0l6.4,6.3l0.1,0.1c0,0.1,0,0.1-0.1,0.1l-1,1l-1.7-1.7
			c-0.7-0.7-1.7-1.2-2.8-1.2s-2,0.4-2.8,1.2L7,13.3L9.6,16l1.9-1.8l0.1-0.1c0.1,0,0.1,0,0.1,0.1l5.9,5.8
			C17.7,20,17.7,20.1,17.6,20.2z"/>
	</g>
</g>
</svg>
