<?xml version="1.0" encoding="utf-8"?>
<!-- Generator: Adobe Illustrator 19.2.1, SVG Export Plug-In . SVG Version: 6.00 Build 0)  -->
<svg version="1.1" id="Capa_1" xmlns="http://www.w3.org/2000/svg" xmlns:xlink="http://www.w3.org/1999/xlink" x="0px" y="0px"
	 viewBox="0 0 31.3 18" style="enable-background:new 0 0 31.3 18;" xml:space="preserve">
<style type="text/css">
	.st0{fill:#A9ACB1;}
</style>
<g>
	<g>
		<g>
			<path class="st0" d="M23.1,13.1c-0.1,0-0.3,0-0.4-0.1c-0.2-0.2-0.2-0.5,0-0.7L26.1,9l-3.3-3.7c-0.2-0.2-0.2-0.5,0-0.7
				c0.2-0.2,0.5-0.2,0.7,0l3.6,4c0.2,0.2,0.2,0.5,0,0.7L23.5,13C23.4,13.1,23.3,13.1,23.1,13.1z"/>
		</g>
		<g>
			<path class="st0" d="M26.8,9.5H18c-0.3,0-0.5-0.2-0.5-0.5s0.2-0.5,0.5-0.5h8.8c0.3,0,0.5,0.2,0.5,0.5S27.1,9.5,26.8,9.5z"/>
		</g>
	</g>
	<g>
		<path class="st0" d="M9.9,10.6c0,1.4,0.7,2.1,2,2.3V9.3C10.5,9,9.4,8.6,9.4,6.9c0-1.4,1.1-2.3,2.5-2.3V3.6h0.5v0.9
			c1.4,0,2.6,1,2.5,2.6h-0.8c0-1.2-0.7-2-1.8-2v3.5c1.4,0.3,2.8,0.8,2.8,2.4c0,1.6-1.4,2.4-2.8,2.4v1h-0.5v-1
			c-1.9-0.2-2.7-1.1-2.7-2.9H9.9z M11.9,5.2c-1,0-1.8,0.5-1.8,1.8c0,1.1,0.9,1.3,1.8,1.6V5.2z M12.3,12.8c1,0,2-0.5,2-1.8
			c0-1.1-1.1-1.5-2-1.7V12.8z"/>
	</g>
	<g>
		<path class="st0" d="M12.3,17.3C7.7,17.3,4,13.6,4,9c0-4.6,3.7-8.3,8.3-8.3c3.6,0,6.8,2.3,7.9,5.8c0.1,0.3-0.1,0.5-0.3,0.6
			c-0.3,0.1-0.5-0.1-0.6-0.3c-1-3-3.8-5.1-7-5.1C8.3,1.7,5,5,5,9c0,4,3.3,7.3,7.3,7.3c3,0,5.8-1.9,6.8-4.7c0.1-0.3,0.4-0.4,0.6-0.3
			c0.3,0.1,0.4,0.4,0.3,0.6C18.9,15.2,15.7,17.3,12.3,17.3z"/>
	</g>
</g>
</svg>
