<?xml version="1.0" encoding="utf-8"?>
<!-- Generator: Adobe Illustrator 19.2.1, SVG Export Plug-In . SVG Version: 6.00 Build 0)  -->
<svg version="1.1" id="Capa_1" xmlns="http://www.w3.org/2000/svg" xmlns:xlink="http://www.w3.org/1999/xlink" x="0px" y="0px"
	 viewBox="0 0 31.3 18" style="enable-background:new 0 0 31.3 18;" xml:space="preserve">
<style type="text/css">
	.st0{fill:#A9ACB1;}
</style>
<g>
	<g>
		<g>
			<g>
				<path class="st0" d="M14.2,8.9c-0.1,0-0.3,0-0.4-0.1l-3.6-3.6c-0.2-0.2-0.2-0.5,0-0.7l3.6-4c0.2-0.2,0.5-0.2,0.7,0
					c0.2,0.2,0.2,0.5,0,0.7l-3.3,3.7L14.6,8c0.2,0.2,0.2,0.5,0,0.7C14.5,8.8,14.4,8.9,14.2,8.9z"/>
			</g>
		</g>
		<g>
			<path class="st0" d="M18.9,5.2h-8.3c-0.3,0-0.5-0.2-0.5-0.5s0.2-0.5,0.5-0.5h8.3c0.3,0,0.5,0.2,0.5,0.5S19.2,5.2,18.9,5.2z"/>
		</g>
	</g>
	<g>
		<g>
			<g>
				<path class="st0" d="M17,17.8c-0.1,0-0.3,0-0.4-0.1c-0.2-0.2-0.2-0.5,0-0.7l3.3-3.3l-3.3-3.7c-0.2-0.2-0.2-0.5,0-0.7
					c0.2-0.2,0.5-0.2,0.7,0l3.6,4c0.2,0.2,0.2,0.5,0,0.7l-3.6,3.6C17.3,17.7,17.2,17.8,17,17.8z"/>
			</g>
		</g>
		<g>
			<path class="st0" d="M20.7,14.1h-8.3c-0.3,0-0.5-0.2-0.5-0.5s0.2-0.5,0.5-0.5h8.3c0.3,0,0.5,0.2,0.5,0.5S20.9,14.1,20.7,14.1z"/>
		</g>
	</g>
</g>
</svg>
