<?xml version="1.0" encoding="utf-8"?>
<!-- Generator: Adobe Illustrator 19.2.1, SVG Export Plug-In . SVG Version: 6.00 Build 0)  -->
<svg version="1.1" id="Capa_1" xmlns="http://www.w3.org/2000/svg" xmlns:xlink="http://www.w3.org/1999/xlink" x="0px" y="0px"
	 viewBox="0 0 31.3 18" style="enable-background:new 0 0 31.3 18;" xml:space="preserve">
<style type="text/css">
	.st0{fill:#A9ACB1;}
</style>
<g>
	<g>
		<path class="st0" d="M23.2,16.8H8c-0.8,0-1.5-0.7-1.5-1.5V6c0-0.8,0.7-1.5,1.5-1.5h15.2c0.8,0,1.5,0.7,1.5,1.5v9.2
			C24.7,16.1,24.1,16.8,23.2,16.8z M8,5.6C7.8,5.6,7.6,5.8,7.6,6v9.2c0,0.3,0.2,0.5,0.5,0.5h15.2c0.3,0,0.5-0.2,0.5-0.5V6
			c0-0.3-0.2-0.5-0.5-0.5H8z"/>
	</g>
	<g>
		<path class="st0" d="M19.9,6.6c-0.3,0-0.5-0.2-0.5-0.5V2c0-0.1-0.3-0.2-0.7-0.2h-6.1c-0.4,0-0.7,0.2-0.7,0.3l0,4.2
			c0,0.3-0.2,0.5-0.5,0.5s-0.5-0.2-0.5-0.5V2c0-0.7,0.8-1.2,1.7-1.2h6.1c1,0,1.7,0.5,1.7,1.2v4.2C20.4,6.4,20.2,6.6,19.9,6.6z"/>
	</g>
</g>
</svg>
