<?xml version="1.0" encoding="utf-8"?>
<!-- Generator: Adobe Illustrator 19.2.1, SVG Export Plug-In . SVG Version: 6.00 Build 0)  -->
<svg version="1.1" id="Capa_1" xmlns="http://www.w3.org/2000/svg" xmlns:xlink="http://www.w3.org/1999/xlink" x="0px" y="0px"
	 viewBox="0 0 31.3 18" style="enable-background:new 0 0 31.3 18;" xml:space="preserve">
<style type="text/css">
	.st0{fill:#A9ACB1;}
</style>
<g>
	<g>
		<path class="st0" d="M18.8,10c0,1.1,0.6,1.8,1.6,1.9v-3c-1.1-0.3-2.1-0.6-2.1-2c0-1.2,0.9-1.9,2.1-1.9V4.2h0.4V5
			C22,5,23,5.8,23,7.1h-0.6c0-1-0.6-1.6-1.5-1.6v2.9c1.1,0.2,2.3,0.6,2.3,2c0,1.3-1.1,2-2.3,2v0.8h-0.4v-0.9
			c-1.6-0.1-2.2-0.9-2.3-2.4H18.8z M20.5,5.5C19.7,5.5,19,5.9,19,7c0,0.9,0.7,1.1,1.5,1.3V5.5z M20.9,11.9c0.8,0,1.7-0.4,1.7-1.5
			c0-0.9-0.9-1.2-1.7-1.4V11.9z"/>
	</g>
	<g>
		<path class="st0" d="M28.3,15.1H13.1c-0.8,0-1.5-0.7-1.5-1.5V4.4c0-0.8,0.7-1.5,1.5-1.5h15.2c0.8,0,1.5,0.7,1.5,1.5v9.2
			C29.8,14.4,29.1,15.1,28.3,15.1z M13.1,3.9c-0.3,0-0.5,0.2-0.5,0.5v9.2c0,0.3,0.2,0.5,0.5,0.5h15.2c0.3,0,0.5-0.2,0.5-0.5V4.4
			c0-0.3-0.2-0.5-0.5-0.5H13.1z"/>
	</g>
	<g>
		<path class="st0" d="M10.1,3.9H2c-0.3,0-0.5-0.2-0.5-0.5S1.7,2.9,2,2.9h8.1c0.3,0,0.5,0.2,0.5,0.5S10.4,3.9,10.1,3.9z"/>
	</g>
	<g>
		<path class="st0" d="M10.1,7.5H6.1C5.8,7.5,5.6,7.2,5.6,7s0.2-0.5,0.5-0.5h4.1c0.3,0,0.5,0.2,0.5,0.5S10.4,7.5,10.1,7.5z"/>
	</g>
	<g>
		<path class="st0" d="M10.1,10.8H8.4c-0.3,0-0.5-0.2-0.5-0.5s0.2-0.5,0.5-0.5h1.6c0.3,0,0.5,0.2,0.5,0.5S10.3,10.8,10.1,10.8z"/>
	</g>
</g>
</svg>
