<?xml version="1.0" encoding="utf-8"?>
<!-- Generator: Adobe Illustrator 19.2.1, SVG Export Plug-In . SVG Version: 6.00 Build 0)  -->
<svg version="1.1" id="Capa_1" xmlns="http://www.w3.org/2000/svg" xmlns:xlink="http://www.w3.org/1999/xlink" x="0px" y="0px"
	 viewBox="0 0 31.3 18" style="enable-background:new 0 0 31.3 18;" xml:space="preserve">
<style type="text/css">
	.st0{fill:#FFFFFF;}
</style>
<g>
	<g>
		<path class="st0" d="M14.9,8.4H9V4.5c0-1.1,0.9-2,2-2h3.9V8.4z M10,7.4h3.9V3.4H11c-0.6,0-1,0.5-1,1V7.4z"/>
	</g>
	<g>
		<path class="st0" d="M22.3,8.4h-5.9V2.4h3.9c1.1,0,2,0.9,2,2V8.4z M17.4,7.4h3.9V4.5c0-0.6-0.5-1-1-1h-2.9V7.4z"/>
	</g>
	<g>
		<path class="st0" d="M14.9,15.6H11c-1.1,0-2-0.9-2-2V9.6h5.9V15.6z M10,10.6v2.9c0,0.6,0.5,1,1,1h2.9v-3.9H10z"/>
	</g>
	<g>
		<path class="st0" d="M20.3,15.6h-3.9V9.6h5.9v3.9C22.3,14.6,21.4,15.6,20.3,15.6z M17.4,14.6h2.9c0.6,0,1-0.5,1-1v-2.9h-3.9V14.6z
			"/>
	</g>
</g>
</svg>
