<?xml version="1.0" encoding="utf-8"?>
<!-- Generator: Adobe Illustrator 19.2.1, SVG Export Plug-In . SVG Version: 6.00 Build 0)  -->
<svg version="1.1" id="Capa_1" xmlns="http://www.w3.org/2000/svg" xmlns:xlink="http://www.w3.org/1999/xlink" x="0px" y="0px"
	 viewBox="0 0 259.3 221.3" style="enable-background:new 0 0 259.3 221.3;" xml:space="preserve">
<style type="text/css">
	.st0{fill:#A9FFA7;}
	.st1{fill:#B1B1B6;}
	.st2{fill:#BFF6E7;}
</style>
<g>
	<path class="st0" d="M163.3,69.4L152.6,66c-1.4-0.4-2.5-1.5-2.9-2.8c-0.7-2.1-1.6-4.1-2.5-6.1c-0.6-1.3-0.6-2.8,0.1-4.1l5.2-10
		c0.9-1.8,0.6-4-0.8-5.4l-16.3-16.3c-1.4-1.4-3.6-1.8-5.4-0.8l-10,5.2c-1.3,0.7-2.8,0.7-4.1,0.1c-2-0.9-4-1.8-6.1-2.5
		c-1.4-0.5-2.4-1.6-2.9-3l-3.4-10.7c-0.6-1.9-2.4-3.2-4.4-3.2H75.8c-2,0-3.8,1.3-4.4,3.2L68,20.1c-0.4,1.4-1.5,2.5-2.9,3
		c-2.1,0.7-4.1,1.6-6.1,2.5c-1.3,0.6-2.8,0.6-4.1-0.1l-10-5.2c-1.8-0.9-4-0.6-5.4,0.8L23.2,37.5c-1.4,1.4-1.8,3.6-0.8,5.4l5.2,10
		c0.7,1.3,0.7,2.8,0.1,4.1c-0.9,2-1.8,4-2.5,6.1c-0.5,1.4-1.6,2.4-3,2.9l-10.7,3.4c-1.9,0.6-3.2,2.4-3.2,4.4v23.1
		c0,2,1.3,3.8,3.2,4.4l10.7,3.4c1.4,0.4,2.5,1.5,2.9,2.8c0.7,2.1,1.6,4.1,2.5,6.1c0.6,1.3,0.6,2.8-0.1,4.1l-5.2,10
		c-0.9,1.8-0.6,4,0.8,5.4l16.3,16.3c1.4,1.4,3.6,1.8,5.4,0.8l10-5.2c1.3-0.7,2.8-0.7,4.1-0.1c2,0.9,4,1.8,6.1,2.5
		c1.4,0.5,2.4,1.6,2.9,3l3.4,10.7c0.6,1.9,2.4,3.2,4.4,3.2h23.1c2,0,3.8-1.3,4.4-3.2l3.4-10.7c0.4-1.4,1.5-2.5,2.9-3
		c2.1-0.7,4.1-1.6,6.1-2.5c1.3-0.6,2.8-0.6,4.1,0.1l10,5.2c1.8,0.9,4,0.6,5.4-0.8l16.3-16.3c1.4-1.4,1.8-3.6,0.8-5.4l-5.2-10
		c-0.7-1.3-0.7-2.8-0.1-4.1c0.9-2,1.8-4,2.5-6.1c0.5-1.4,1.6-2.4,2.9-2.8l10.7-3.4c1.9-0.6,3.2-2.4,3.2-4.4V73.8
		C166.5,71.8,165.2,70,163.3,69.4z M87.3,118.1c-18.1,0-32.8-14.7-32.8-32.8c0-18.1,14.7-32.8,32.8-32.8c18.1,0,32.8,14.7,32.8,32.8
		C120.1,103.4,105.4,118.1,87.3,118.1z"/>
</g>
<g>
	<path class="st1" d="M95.8,165H72.7c-2.2,0-4.2-1.4-4.9-3.6l-3.4-10.7c-0.4-1.2-1.3-2.2-2.6-2.6c-2.1-0.7-4.1-1.6-6.1-2.5
		c-1.2-0.6-2.5-0.5-3.7,0.1l-10,5.2c-2,1-4.4,0.7-6-0.9l-16.3-16.3c-1.6-1.6-2-4-0.9-6l5.2-10c0.6-1.1,0.6-2.5,0.1-3.7
		c-1-2-1.8-4.1-2.6-6.2c-0.4-1.2-1.4-2.1-2.6-2.5l-10.7-3.4c-2.1-0.7-3.6-2.6-3.6-4.9V73.8c0-2.2,1.4-4.2,3.6-4.9l10.7-3.4
		c1.2-0.4,2.2-1.3,2.6-2.6c0.7-2.1,1.6-4.1,2.5-6.1c0.6-1.2,0.5-2.5-0.1-3.7l-5.2-10c-1-2-0.7-4.4,0.9-6l16.3-16.3
		c1.6-1.6,4-2,6-0.9l10,5.2c1.1,0.6,2.5,0.6,3.7,0.1c2-1,4.1-1.8,6.1-2.5c1.2-0.4,2.2-1.4,2.6-2.6l3.4-10.7c0.7-2.1,2.6-3.6,4.9-3.6
		h23.1c2.2,0,4.2,1.4,4.9,3.6l3.4,10.7c0.4,1.2,1.3,2.2,2.6,2.6c2.1,0.7,4.1,1.6,6.1,2.5c1.2,0.6,2.5,0.5,3.7-0.1l10-5.2
		c2-1,4.4-0.7,6,0.9l16.3,16.3c1.6,1.6,2,4,0.9,6l-5.2,10c-0.6,1.1-0.6,2.5-0.1,3.7c1,2,1.8,4.1,2.6,6.2c0.4,1.2,1.4,2.1,2.6,2.5
		l10.7,3.4c2.1,0.7,3.6,2.6,3.6,4.9v23.1c0,2.2-1.4,4.2-3.6,4.9l-10.7,3.4c-1.2,0.4-2.2,1.3-2.6,2.5c-0.7,2.1-1.6,4.1-2.6,6.2
		c-0.5,1.2-0.5,2.5,0.1,3.7l5.2,10c1,2,0.7,4.4-0.9,6l-16.3,16.3c-1.6,1.6-4,2-6,0.9l-10-5.2c-1.1-0.6-2.5-0.6-3.7-0.1
		c-2,1-4.1,1.8-6.1,2.5c-1.2,0.4-2.2,1.4-2.6,2.6l-3.4,10.7C100,163.6,98.1,165,95.8,165z M54,144.1c0.8,0,1.5,0.2,2.2,0.5
		c2,0.9,4,1.8,6,2.5c1.5,0.5,2.7,1.8,3.2,3.3l3.4,10.7c0.5,1.7,2.1,2.9,3.9,2.9h23.1c1.8,0,3.4-1.2,3.9-2.9l3.4-10.7
		c0.5-1.5,1.7-2.7,3.2-3.3c2-0.7,4.1-1.6,6-2.5c1.4-0.7,3.2-0.7,4.6,0.1l10,5.2c1.6,0.8,3.5,0.5,4.8-0.7l16.3-16.3
		c1.3-1.3,1.6-3.2,0.7-4.8l-5.2-10c-0.7-1.4-0.8-3.1-0.1-4.5c0.9-2,1.8-4,2.5-6.1c0.5-1.5,1.8-2.7,3.3-3.1l10.7-3.4
		c1.7-0.5,2.9-2.1,2.9-3.9V73.8c0-1.8-1.2-3.4-2.9-3.9l-10.7-3.4c-1.5-0.5-2.7-1.7-3.3-3.1c-0.7-2-1.6-4.1-2.5-6.1
		c-0.7-1.4-0.7-3.1,0.1-4.5l5.2-10c0.8-1.6,0.5-3.5-0.7-4.8l-16.3-16.3c-1.3-1.3-3.2-1.6-4.8-0.7l-10,5.2c-1.4,0.7-3.1,0.8-4.6,0.1
		c-2-0.9-4-1.8-6-2.5c-1.5-0.5-2.7-1.8-3.2-3.3L99.7,9.6c-0.5-1.7-2.1-2.9-3.9-2.9H72.7c-1.8,0-3.4,1.2-3.9,2.9l-3.4,10.7
		c-0.5,1.5-1.7,2.7-3.2,3.3c-2,0.7-4.1,1.6-6,2.5c-1.4,0.7-3.2,0.7-4.6-0.1l-10-5.2c-1.6-0.8-3.5-0.5-4.8,0.7L20.5,37.9
		c-1.3,1.3-1.6,3.2-0.7,4.8l5.2,10c0.7,1.4,0.8,3.1,0.1,4.6c-0.9,2-1.8,4-2.5,6c-0.5,1.5-1.8,2.7-3.3,3.2L8.5,69.9
		c-1.7,0.5-2.9,2.1-2.9,3.9v23.1c0,1.8,1.2,3.4,2.9,3.9l10.7,3.4c1.5,0.5,2.7,1.7,3.3,3.1c0.7,2,1.6,4.1,2.5,6.1
		c0.7,1.4,0.7,3.1-0.1,4.5l-5.2,10c-0.8,1.6-0.5,3.5,0.7,4.8l16.3,16.3c1.3,1.3,3.2,1.6,4.8,0.7l10-5.2
		C52.4,144.3,53.2,144.1,54,144.1z M84.3,118.6c-18.3,0-33.3-14.9-33.3-33.3C51,67,65.9,52.1,84.3,52.1s33.3,14.9,33.3,33.3
		C117.5,103.7,102.6,118.6,84.3,118.6z M84.3,53.1C66.5,53.1,52,67.6,52,85.3s14.5,32.3,32.3,32.3s32.3-14.5,32.3-32.3
		S102.1,53.1,84.3,53.1z"/>
</g>
<g>
	<path class="st2" d="M251.7,148.9l-7-2.2c-0.9-0.3-1.6-1-1.9-1.9c-0.5-1.4-1-2.7-1.7-4c-0.4-0.8-0.4-1.8,0-2.7l3.4-6.5
		c0.6-1.2,0.4-2.6-0.5-3.5l-10.6-10.6c-0.9-0.9-2.3-1.1-3.5-0.5l-6.5,3.4c-0.8,0.4-1.8,0.4-2.7,0c-1.3-0.6-2.6-1.2-4-1.6
		c-0.9-0.3-1.6-1-1.9-1.9l-2.2-7c-0.4-1.3-1.6-2.1-2.9-2.1h-15.1c-1.3,0-2.5,0.8-2.9,2.1l-2.2,7c-0.3,0.9-1,1.6-1.9,1.9
		c-1.4,0.5-2.7,1-4,1.6c-0.9,0.4-1.8,0.4-2.7,0l-6.5-3.4c-1.2-0.6-2.6-0.4-3.5,0.5l-10.6,10.6c-0.9,0.9-1.1,2.3-0.5,3.5l3.4,6.5
		c0.4,0.8,0.4,1.8,0,2.7c-0.6,1.3-1.2,2.6-1.6,4c-0.3,0.9-1,1.6-1.9,1.9l-7,2.2c-1.3,0.4-2.1,1.6-2.1,2.9v15.1
		c0,1.3,0.8,2.5,2.1,2.9l7,2.2c0.9,0.3,1.6,1,1.9,1.9c0.5,1.4,1,2.7,1.7,4c0.4,0.8,0.4,1.8,0,2.7l-3.4,6.5c-0.6,1.2-0.4,2.6,0.5,3.5
		l10.6,10.6c0.9,0.9,2.3,1.1,3.5,0.5l6.5-3.4c0.8-0.4,1.8-0.4,2.7,0c1.3,0.6,2.6,1.2,4,1.6c0.9,0.3,1.6,1,1.9,1.9l2.2,7
		c0.4,1.3,1.6,2.1,2.9,2.1h15.1c1.3,0,2.5-0.8,2.9-2.1l2.2-7c0.3-0.9,1-1.6,1.9-1.9c1.4-0.5,2.7-1,4-1.6c0.9-0.4,1.8-0.4,2.7,0
		l6.5,3.4c1.2,0.6,2.6,0.4,3.5-0.5l10.6-10.6c0.9-0.9,1.1-2.3,0.5-3.5l-3.4-6.5c-0.4-0.8-0.4-1.8,0-2.7c0.6-1.3,1.2-2.6,1.7-4
		c0.3-0.9,1-1.6,1.9-1.9l7-2.2c1.3-0.4,2.1-1.6,2.1-2.9v-15.1C253.8,150.5,253,149.3,251.7,148.9z M202.2,180.7
		c-11.8,0-21.4-9.6-21.4-21.4c0-11.8,9.6-21.4,21.4-21.4c11.8,0,21.4,9.6,21.4,21.4C223.6,171.1,214,180.7,202.2,180.7z"/>
</g>
<g>
	<path class="st1" d="M207.7,208.1h-15.1c-1.5,0-2.9-1-3.3-2.4l-2.2-7c-0.2-0.7-0.8-1.3-1.6-1.6c-1.4-0.5-2.7-1-4-1.7
		c-0.7-0.3-1.5-0.3-2.2,0l-6.5,3.4c-1.4,0.7-3,0.5-4.1-0.6L158,187.5c-1.1-1.1-1.3-2.7-0.6-4.1l3.4-6.5c0.4-0.7,0.4-1.5,0-2.2
		c-0.6-1.3-1.2-2.7-1.7-4c-0.3-0.7-0.9-1.3-1.6-1.5l-7-2.2c-1.5-0.5-2.4-1.8-2.4-3.3v-15.1c0-1.5,1-2.9,2.4-3.3l7-2.2
		c0.7-0.2,1.3-0.8,1.6-1.6c0.5-1.3,1-2.7,1.7-4c0.3-0.7,0.3-1.5,0-2.2l-3.4-6.5c-0.7-1.4-0.5-3,0.6-4.1l10.6-10.6
		c1.1-1.1,2.7-1.3,4.1-0.6l6.5,3.4c0.7,0.4,1.5,0.4,2.2,0c1.3-0.6,2.7-1.2,4-1.7c0.7-0.3,1.3-0.9,1.6-1.6l2.2-7
		c0.5-1.5,1.8-2.4,3.3-2.4h15.1c1.5,0,2.9,1,3.3,2.4l2.2,7c0.2,0.7,0.8,1.3,1.6,1.6c1.3,0.5,2.7,1,4,1.7c0.7,0.3,1.5,0.3,2.2,0
		l6.5-3.4c1.4-0.7,3-0.5,4.1,0.6l10.6,10.6c1.1,1.1,1.3,2.7,0.6,4.1l-3.4,6.5c-0.4,0.7-0.4,1.5,0,2.2c0.6,1.3,1.2,2.7,1.7,4
		c0.3,0.7,0.9,1.3,1.6,1.5l7,2.2c1.5,0.5,2.4,1.8,2.4,3.3v15.1c0,1.5-1,2.9-2.4,3.3l-7,2.2c-0.7,0.2-1.3,0.8-1.6,1.5
		c-0.5,1.4-1,2.7-1.7,4c-0.3,0.7-0.3,1.5,0,2.2l3.4,6.5c0.7,1.4,0.5,3-0.6,4.1l-10.6,10.6c-1.1,1.1-2.7,1.3-4.1,0.6l-6.5-3.4
		c-0.7-0.4-1.5-0.4-2.2,0c-1.3,0.6-2.7,1.2-4,1.7c-0.7,0.3-1.3,0.9-1.6,1.6l-2.2,7C210.6,207.2,209.3,208.1,207.7,208.1z
		 M180.5,194.2c0.5,0,1,0.1,1.5,0.3c1.3,0.6,2.6,1.2,3.9,1.6c1,0.4,1.8,1.2,2.2,2.2l2.2,7c0.3,1,1.3,1.8,2.4,1.8h15.1
		c1.1,0,2.1-0.7,2.4-1.8l2.2-7c0.3-1,1.1-1.9,2.2-2.2c1.3-0.5,2.6-1,3.9-1.6c1-0.5,2.2-0.5,3.1,0l6.5,3.4c1,0.5,2.2,0.3,2.9-0.5
		l10.6-10.6c0.8-0.8,1-2,0.5-2.9l-3.4-6.5c-0.5-1-0.5-2.1-0.1-3.1c0.6-1.3,1.2-2.6,1.6-3.9c0.4-1,1.2-1.8,2.2-2.2l7-2.2
		c1-0.3,1.8-1.3,1.8-2.4v-15.1c0-1.1-0.7-2.1-1.8-2.4l0,0l-7-2.2c-1-0.3-1.9-1.1-2.2-2.2c-0.5-1.3-1-2.7-1.6-3.9
		c-0.5-1-0.4-2.1,0.1-3.1l3.4-6.5c0.5-1,0.3-2.2-0.5-2.9L231,114.5c-0.8-0.8-2-1-2.9-0.5l-6.5,3.4c-1,0.5-2.1,0.5-3.1,0
		c-1.3-0.6-2.6-1.2-3.9-1.6c-1-0.4-1.8-1.2-2.2-2.2l-2.2-7c-0.3-1-1.3-1.8-2.4-1.8h-15.1c-1.1,0-2.1,0.7-2.4,1.8l-2.2,7
		c-0.3,1-1.1,1.9-2.2,2.2c-1.3,0.5-2.6,1-3.9,1.6c-1,0.5-2.2,0.5-3.1,0l-6.5-3.4c-1-0.5-2.2-0.3-2.9,0.5l-10.6,10.6
		c-0.8,0.8-1,2-0.5,2.9l3.4,6.5c0.5,1,0.5,2.1,0,3.1c-0.6,1.3-1.2,2.6-1.6,3.9c-0.4,1-1.2,1.8-2.2,2.2l-7,2.2
		c-1,0.3-1.8,1.3-1.8,2.4v15.1c0,1.1,0.7,2.1,1.8,2.4l7,2.2c1,0.3,1.9,1.1,2.2,2.2c0.5,1.3,1,2.6,1.6,3.9c0.5,1,0.4,2.2-0.1,3.1
		l-3.4,6.5c-0.5,1-0.3,2.2,0.5,2.9l10.6,10.6c0.8,0.8,2,1,2.9,0.5l6.5-3.4C179.3,194.3,179.9,194.2,180.5,194.2z M200.2,177.9
		c-12.1,0-21.9-9.8-21.9-21.9s9.8-21.9,21.9-21.9c12.1,0,21.9,9.8,21.9,21.9S212.3,177.9,200.2,177.9z M200.2,135.1
		c-11.5,0-20.9,9.4-20.9,20.9s9.4,20.9,20.9,20.9c11.5,0,20.9-9.4,20.9-20.9S211.7,135.1,200.2,135.1z"/>
</g>
</svg>
