<svg version="1.1" id="Capa_1" xmlns="http://www.w3.org/2000/svg" xmlns:xlink="http://www.w3.org/1999/xlink" x="0px" y="0px"
	 viewBox="0 0 536 400" style="enable-background:new 0 0 536 400;" xml:space="preserve">
<style type="text/css">
	.st0{fill:#F7F8F5;}
	.st1{fill:#DCF4D8;}
	.st2{fill:none;stroke:#00AE76;stroke-linecap:round;stroke-miterlimit:10;}
	.st3{fill:none;stroke:#38C094;stroke-miterlimit:10;}
	.st4{fill:none;stroke:#008E76;stroke-miterlimit:10;}
	.st5{fill:#DCF4EC;}
	.st6{opacity:0.5;fill:#CBEEED;}
	.st7{fill:none;stroke:#0ABBB8;stroke-miterlimit:10;}
	.st8{fill:#F7F8F5;stroke:#D6D6D6;stroke-miterlimit:10;}
	.st9{fill:none;stroke:#B4B4B4;stroke-width:3;stroke-linecap:round;stroke-miterlimit:10;}
	.st10{fill:#D6D6D6;}
</style>
<g>
	
		<ellipse transform="matrix(0.5594 -0.8289 0.8289 0.5594 36.1681 429.1322)" class="st0" cx="421.7" cy="180.5" rx="12.4" ry="12.4"/>
	<path class="st0 " d="M466.6,185.8L400,140.9c-0.8-0.5-1.9-0.3-2.4,0.5l-21.2,31.4c-0.5,0.8-0.3,1.9,0.5,2.4l66.6,44.9
		c0.8,0.5,1.9,0.3,2.4-0.5l21.2-31.4C467.6,187.5,467.4,186.4,466.6,185.8z M448.2,206.9c-4-2.7-9.4-1.6-12.1,2.3L389.7,178
		c2.7-4,1.6-9.4-2.3-12.1l7.9-11.8c4,2.7,9.4,1.6,12.1-2.3l46.4,31.3c-2.7,4-1.6,9.4,2.3,12.1L448.2,206.9z"/>
</g>
<g>
	<ellipse transform="matrix(0.8753 -0.4837 0.4837 0.8753 -61.2146 274.6933)" class="st0" cx="501.9" cy="256" rx="8.1" ry="8.1"/>
	<path class="st0" d="M518.4,231.3l-46.2,25.5c-0.6,0.3-0.8,1-0.4,1.6l12.1,21.8c0.3,0.6,1,0.8,1.6,0.4l46.2-25.5
		c0.6-0.3,0.8-1,0.4-1.6L520,231.8C519.7,231.2,519,231,518.4,231.3z M525.3,248.4c-2.8,1.5-3.8,5-2.2,7.8L490.8,274
		c-1.5-2.8-5-3.8-7.8-2.2l-4.5-8.2c2.8-1.5,3.8-5,2.2-7.8L513,238c1.5,2.8,5,3.8,7.8,2.2L525.3,248.4z"/>
</g>
<g>
	
		<ellipse transform="matrix(0.8753 -0.4837 0.4837 0.8753 -103.1458 69.3728)" class="st0" cx="82.9" cy="234.6" rx="8.1" ry="8.1"/>
	<path class="st0 " d="M99.4,210l-46.2,25.5c-0.6,0.3-0.8,1-0.4,1.6l12.1,21.8c0.3,0.6,1,0.8,1.6,0.4l46.2-25.5
		c0.6-0.3,0.8-1,0.4-1.6L101,210.4C100.7,209.9,100,209.7,99.4,210z M106.3,227.1c-2.8,1.5-3.8,5-2.2,7.8l-32.2,17.8
		c-1.5-2.8-5-3.8-7.8-2.2l-4.5-8.2c2.8-1.5,3.8-5,2.2-7.8L94,216.7c1.5,2.8,5,3.8,7.8,2.2L106.3,227.1z"/>
</g>
<g class="animated bounceInRight">
	<path class="st1" d="M180.8,128.3H36c-1.7,0-3.1-1.4-3.1-3.1V56.8c0-1.7,1.4-3.1,3.1-3.1h144.8c1.7,0,3.1,1.4,3.1,3.1v68.4
		C184,126.9,182.6,128.3,180.8,128.3z"/>
	<path class="st2" d="M64.9,123.4H30.3c-1.7,0-3.1-1.4-3.1-3.1V51.9c0-1.7,1.4-3.1,3.1-3.1h144.8c1.7,0,3.1,1.4,3.1,3.1v68.4
		c0,1.7-1.4,3.1-3.1,3.1H72.8"/>
	<path class="st3" d="M168.8,98.9V73.3c-8.7,0-15.7-7-15.7-15.7H52.3c0,8.7-7,15.7-15.7,15.7v25.6c8.7,0,15.7,7,15.7,15.7h100.9
		C153.2,105.9,160.2,98.9,168.8,98.9z"/>
	<circle class="st4" cx="102.7" cy="86.1" r="22.6"/>
	<g>
		<path class="st3" d="M109.1,80c0-2.8-2.8-5-6.3-5s-6.3,2.3-6.3,5s2.8,5,6.3,5c4.3,0,7.7,2.7,7.7,6.1c0,3.4-3.5,6.1-7.7,6.1
			S95,94.5,95,91.1"/>
		<line class="st3" x1="102.7" y1="72" x2="102.7" y2="100.2"/>
	</g>
</g>
<g>
	<path class="st1" d="M465.6,147.1H362.4c-1.7,0-3.1-1.4-3.1-3.1V96.2c0-1.7,1.4-3.1,3.1-3.1h103.2c1.7,0,3.1,1.4,3.1,3.1V144
		C468.7,145.7,467.3,147.1,465.6,147.1z"/>
	<path class="st2" d="M382.4,143.6h-25.1c-1.3,0-2.3-1-2.3-2.3V91.8c0-1.3,1-2.3,2.3-2.3h104.9c1.3,0,2.3,1,2.3,2.3v49.5
		c0,1.3-1,2.3-2.3,2.3h-74.2"/>
	<path class="st3" d="M457.7,125.8v-18.5c-6.3,0-11.4-5.1-11.4-11.4h-73.1c0,6.3-5.1,11.4-11.4,11.4v18.5c6.3,0,11.4,5.1,11.4,11.4
		h73.1C446.4,130.9,451.5,125.8,457.7,125.8z"/>
	<circle class="st4" cx="409.8" cy="116.6" r="16.3"/>
	<g>
		<path class="st3" d="M414.4,112.1c0-2-2.1-3.7-4.6-3.7c-2.5,0-4.6,1.6-4.6,3.7s2.1,3.7,4.6,3.7c3.1,0,5.6,2,5.6,4.4
			s-2.5,4.4-5.6,4.4c-3.1,0-5.6-2-5.6-4.4"/>
		<line class="st3" x1="409.8" y1="106.4" x2="409.8" y2="126.8"/>
	</g>
</g>
<g>
	<path class="st1" d="M148.7,347.7H45.5c-1.7,0-3.1-1.4-3.1-3.1v-47.8c0-1.7,1.4-3.1,3.1-3.1h103.2c1.7,0,3.1,1.4,3.1,3.1v47.8
		C151.8,346.3,150.4,347.7,148.7,347.7z"/>
	<path class="st2" d="M65.5,344.2H40.5c-1.3,0-2.3-1-2.3-2.3v-49.5c0-1.3,1-2.3,2.3-2.3h104.9c1.3,0,2.3,1,2.3,2.3v49.5
		c0,1.3-1,2.3-2.3,2.3H71.2"/>
	<path class="st3" d="M140.8,326.4v-18.5c-6.3,0-11.4-5.1-11.4-11.4H56.4c0,6.3-5.1,11.4-11.4,11.4v18.5c6.3,0,11.4,5.1,11.4,11.4
		h73.1C129.5,331.5,134.6,326.4,140.8,326.4z"/>
	<circle class="st4" cx="92.9" cy="317.2" r="16.3"/>
	<g>
		<path class="st3" d="M97.5,312.7c0-2-2.1-3.7-4.6-3.7s-4.6,1.6-4.6,3.7s2.1,3.7,4.6,3.7c3.1,0,5.6,2,5.6,4.4
			c0,2.5-2.5,4.4-5.6,4.4s-5.6-2-5.6-4.4"/>
		<line class="st3" x1="92.9" y1="307" x2="92.9" y2="327.4"/>
	</g>
</g>
<g>
	<path class="st1" d="M515.5,309.6H412.3c-1.7,0-3.1-1.4-3.1-3.1v-47.8c0-1.7,1.4-3.1,3.1-3.1h103.2c1.7,0,3.1,1.4,3.1,3.1v47.8
		C518.7,308.2,517.3,309.6,515.5,309.6z"/>
	<path class="st2" d="M432.4,306.1h-25.1c-1.3,0-2.3-1-2.3-2.3v-49.5c0-1.3,1-2.3,2.3-2.3h104.9c1.3,0,2.3,1,2.3,2.3v49.5
		c0,1.3-1,2.3-2.3,2.3h-74.2"/>
	<path class="st3" d="M507.7,288.3v-18.5c-6.3,0-11.4-5.1-11.4-11.4h-73.1c0,6.3-5.1,11.4-11.4,11.4v18.5c6.3,0,11.4,5.1,11.4,11.4
		h73.1C496.3,293.4,501.4,288.3,507.7,288.3z"/>
	<circle class="st4" cx="459.8" cy="279.1" r="16.3"/>
	<g>
		<path class="st3" d="M464.4,274.6c0-2-2.1-3.7-4.6-3.7c-2.5,0-4.6,1.6-4.6,3.7s2.1,3.7,4.6,3.7c3.1,0,5.6,2,5.6,4.4
			c0,2.5-2.5,4.4-5.6,4.4s-5.6-2-5.6-4.4"/>
		<line class="st3" x1="459.8" y1="268.9" x2="459.8" y2="289.3"/>
	</g>
</g>
<rect x="63.8" y="188.6" transform="matrix(0.7071 -0.7071 0.7071 0.7071 -117.8168 107.8359)" class="st5" width="15" height="15"/>
<rect x="400.7" y="256.4" transform="matrix(0.7071 -0.7071 0.7071 0.7071 -65.2977 361.7296)" class="st5" width="6.6" height="6.6"/>
<rect x="173.3" y="304.6" transform="matrix(0.7071 -0.7071 0.7071 0.7071 -165.9722 215.0661)" class="st5" width="6.6" height="6.6"/>
<circle class="st6" cx="258.2" cy="206.9" r="20.3"/>
<path class="st6" d="M288,273.9h-59.7c-5.5,0-9.5-5.2-8-10.5c4.6-16.6,19.8-28.8,37.9-28.8s33.3,12.2,37.9,28.8
	C297.5,268.7,293.5,273.9,288,273.9z"/>
<circle class="st7" cx="255.7" cy="203.7" r="20.3"/>
<path class="st7" d="M285.5,270.8h-59.7c-5.5,0-9.5-5.2-8-10.5c4.6-16.6,19.8-28.8,37.9-28.8s33.3,12.2,37.9,28.8
	C295,265.6,291,270.8,285.5,270.8z"/>
<path class="st0" d="M300.6,104.7h-41c-11.4,0-20.7,9.3-20.7,20.7v9.9c0,11.4,9.3,20.7,20.7,20.7h0.5c-0.5,3.1-7.3,5.9-5,8.8
	c3.5,4.6,18.9-3.3,19.7-8.8h25.8c11.4,0,20.7-9.3,20.7-20.7v-9.9C321.3,114,312,104.7,300.6,104.7z"/>
<path class="st8" d="M297.3,102h-41c-11.4,0-20.7,9.3-20.7,20.7v9.9c0,11.4,9.3,20.7,20.7,20.7h0.5c-0.5,3.1-7.3,5.9-5,8.8
	c3.5,4.6,18.9-3.3,19.7-8.8h25.8c11.4,0,20.7-9.3,20.7-20.7v-9.9C318,111.3,308.7,102,297.3,102z"/>
<g>
	<path class="st3" d="M281.8,121.3c0-2.8-2.8-5-6.3-5s-6.3,2.3-6.3,5c0,2.8,2.8,5,6.3,5c4.3,0,7.7,2.7,7.7,6.1s-3.5,6.1-7.7,6.1
		s-7.7-2.7-7.7-6.1"/>
	<line class="st3" x1="275.5" y1="113.3" x2="275.5" y2="141.5"/>
</g>
<g>
	<polyline class="st9" points="192.4,173.1 209.2,173.5 208.9,157.4 	"/>
	<line class="st9" x1="189.7" y1="152.5" x2="209.2" y2="173.5"/>
</g>
<g>
	<polyline class="st9" points="191.3,292.4 195.6,276.2 179.9,272.8 	"/>
	<line class="st9" x1="170.7" y1="290.3" x2="195.6" y2="276.2"/>
</g>
<g>
	<polyline class="st9" points="351.7,259.8 337.4,268.5 346.4,281.9 	"/>
	<line class="st9" x1="365.2" y1="275.5" x2="337.4" y2="268.5"/>
</g>
<g>
	<polyline class="st9" points="307.2,173.9 307.3,190.7 323.4,189.8 	"/>
	<line class="st9" x1="327.6" y1="170.4" x2="307.3" y2="190.7"/>
</g>
<g>
	<path class="st10" d="M264,117.7v2.9h-2.3v-2.9H264z M263.8,131.4v5.6h-1.9v-5.6l0.4-8.8h1L263.8,131.4z"/>
	<path class="st10" d="M288,138v-2.9h2.3v2.9H288z M288.3,124.4v-5.8h1.9v5.8l-0.4,8.8h-1L288.3,124.4z"/>
</g>
</svg>