<?xml version="1.0" encoding="utf-8"?>
<!-- Generator: Adobe Illustrator 19.2.1, SVG Export Plug-In . SVG Version: 6.00 Build 0)  -->
<svg version="1.1" id="Capa_1" xmlns="http://www.w3.org/2000/svg" xmlns:xlink="http://www.w3.org/1999/xlink" x="0px" y="0px"
	 viewBox="0 0 536 400" style="enable-background:new 0 0 536 400;" xml:space="preserve">
<style type="text/css">
	.st0{fill:#F7F8F5;}
	.st1{fill:#DCF4D8;}
	.st2{fill:none;stroke:#E3E3E3;stroke-miterlimit:10;}
	.st3{fill:none;stroke:#D2D2D2;stroke-miterlimit:10;}
	.st4{fill:#00AE76;}
	.st5{fill:#00E00B;}
	.st6{fill:none;stroke:#00AE76;stroke-linecap:round;stroke-miterlimit:10;}
	.st7{fill:none;stroke:#38C094;stroke-miterlimit:10;}
	.st8{fill:none;stroke:#008E76;stroke-miterlimit:10;}
	.st9{fill:none;stroke:#0ABBB8;stroke-width:2;stroke-miterlimit:10;}
	.st10{fill:#DCF4EC;}
</style>
<path class="st0" d="M450.5,338.3h-7.8V215.1c0-1.7-1.4-3.1-3.1-3.1H243.1c-1.7,0-3.1,1.4-3.1,3.1v123.2h-7.8
	c-1.7,0-3.1,1.4-3.1,3.1v6.2c0,1.7,1.4,3.1,3.1,3.1h218.4c1.7,0,3.1-1.4,3.1-3.1v-6.2C453.6,339.7,452.2,338.3,450.5,338.3z"/>
<path class="st1" d="M255.7,167.8H110.9c-1.7,0-3.1-1.4-3.1-3.1V96.3c0-1.7,1.4-3.1,3.1-3.1h144.8c1.7,0,3.1,1.4,3.1,3.1v68.4
	C258.9,166.4,257.5,167.8,255.7,167.8z"/>
<circle class="st0" cx="220.8" cy="253.8" r="3.4"/>
<path class="st2" d="M446.2,342.2H243.5V219c0-1.7,1.4-3.1,3.1-3.1h196.5c1.7,0,3.1,1.4,3.1,3.1V342.2z"/>
<path class="st3" d="M446.2,342.2H243.5V219c0-1.7,1.4-3.1,3.1-3.1h196.5c1.7,0,3.1,1.4,3.1,3.1V342.2z"/>
<path class="st3" d="M454,354.6H235.7c-1.7,0-3.1-1.4-3.1-3.1v-6.2c0-1.7,1.4-3.1,3.1-3.1H454c1.7,0,3.1,1.4,3.1,3.1v6.2
	C457.2,353.2,455.8,354.6,454,354.6z"/>
<path class="st2" d="M434.5,334.6H255.2c-1.7,0-3.1-1.4-3.1-3.1v-105c0-1.7,1.4-3.1,3.1-3.1h179.4c1.7,0,3.1,1.4,3.1,3.1v105
	C437.7,333.2,436.3,334.6,434.5,334.6z"/>
<g>
	<g>
		<g>
			<path class="st4" d="M320.2,281.3c-1.5,0-2.4-0.6-2.4-2v-4.2h-1.1v-1.9h1.1v-1.9l2.3-0.3v2.2h1.8l-0.1,1.9h-1.7v3.8
				c0,0.3,0.2,0.4,0.5,0.4c0.3,0,0.6,0,1-0.1l0.3,1.8C321.4,281.2,320.8,281.3,320.2,281.3z"/>
			<path class="st4" d="M325.2,278v0.2c0,0.9,0.4,1.2,1.4,1.2c0.7,0,1.7-0.1,2.4-0.3l0.3,1.8c-0.7,0.3-1.9,0.5-3,0.5
				c-2.6,0-3.5-1.3-3.5-3.2v-1.9c0-1.7,0.8-3.2,3.4-3.2c2.6,0,3.2,1.6,3.2,3.3v1.7H325.2z M327.2,275.9c0-0.6-0.2-1-1-1
				c-0.8,0-1.1,0.5-1.1,1v0.3h2V275.9z"/>
			<path class="st4" d="M337.8,278.4c0,1.9-0.8,2.9-2.7,2.9c-0.6,0-1.5-0.1-2-0.2v3.3l-2.3,0.3v-11.4h1.8l0.2,0.6
				c0.6-0.4,1.6-0.8,2.4-0.8c1.6,0,2.5,1,2.5,2.9V278.4z M333.1,279.1c0.4,0.1,1,0.2,1.5,0.2c0.6,0,0.8-0.4,0.8-0.9V276
				c0-0.6-0.2-0.9-0.8-0.9c-0.5,0-1.2,0.3-1.5,0.6V279.1z"/>
			<path class="st4" d="M341.4,276.3v4.8h-2.3v-7.9h1.9l0.2,0.8c0.5-0.3,1.5-0.8,2.1-0.9l0.2,2.2C342.8,275.6,341.9,276,341.4,276.3
				z"/>
			<path class="st4" d="M346.9,278v0.2c0,0.9,0.4,1.2,1.4,1.2c0.7,0,1.7-0.1,2.4-0.3l0.3,1.8c-0.7,0.3-1.9,0.5-3,0.5
				c-2.6,0-3.5-1.3-3.5-3.2v-1.9c0-1.7,0.8-3.2,3.4-3.2c2.6,0,3.2,1.6,3.2,3.3v1.7H346.9z M348.9,275.9c0-0.6-0.2-1-1-1
				c-0.8,0-1.1,0.5-1.1,1v0.3h2V275.9z"/>
			<path class="st4" d="M355.2,281.3c-0.9,0-2.1-0.2-2.9-0.5l0.4-1.7c0.7,0.2,1.5,0.4,2.4,0.4c0.7,0,0.8-0.2,0.8-0.7
				c0-0.5,0-0.6-1.3-0.9c-1.9-0.5-2.1-1-2.1-2.5c0-1.7,0.6-2.4,3-2.4c0.6,0,1.7,0.1,2.4,0.3l-0.2,1.8c-0.7-0.1-1.6-0.2-2.2-0.2
				c-0.7,0-0.8,0.2-0.8,0.5c0,0.5,0.1,0.6,1,0.8c2.3,0.5,2.4,1,2.4,2.6C358.1,280.4,357.4,281.3,355.2,281.3z"/>
			<path class="st4" d="M362.6,281.3c-1.5,0-2.4-0.6-2.4-2v-4.2h-1.1v-1.9h1.1v-1.9l2.3-0.3v2.2h1.8l-0.1,1.9h-1.7v3.8
				c0,0.3,0.2,0.4,0.5,0.4c0.3,0,0.6,0,1-0.1l0.3,1.8C363.8,281.2,363.2,281.3,362.6,281.3z"/>
			<path class="st4" d="M365.3,278.1v-1.8c0-1.6,0.8-3.2,3.6-3.2c2.8,0,3.6,1.6,3.6,3.2v1.8c0,1.6-0.8,3.2-3.6,3.2
				C366.1,281.3,365.3,279.8,365.3,278.1z M370.1,278.2v-2c0-0.7-0.4-1.2-1.2-1.2s-1.2,0.4-1.2,1.2v2c0,0.7,0.4,1.2,1.2,1.2
				S370.1,278.9,370.1,278.2z"/>
			<path class="st4" d="M374.6,281.2v-2.7h2.3v2.7H374.6z"/>
			<path class="st4" d="M381.6,278.1c0,0.8,0.3,1.2,1.3,1.2c0.6,0,1.1-0.1,1.6-0.2l0.3,1.9c-0.8,0.2-1.4,0.2-1.9,0.2
				c-2.6,0-3.6-1-3.6-3.2v-1.8c0-2.3,1.1-3.2,3.6-3.2c0.6,0,1.1,0.1,1.9,0.2l-0.3,1.9c-0.5-0.1-1.2-0.2-1.6-0.2
				c-0.9,0-1.3,0.4-1.3,1.2V278.1z"/>
			<path class="st4" d="M386,278.1v-1.8c0-1.6,0.8-3.2,3.6-3.2c2.8,0,3.6,1.6,3.6,3.2v1.8c0,1.6-0.8,3.2-3.6,3.2
				C386.8,281.3,386,279.8,386,278.1z M390.8,278.2v-2c0-0.7-0.4-1.2-1.2-1.2s-1.2,0.4-1.2,1.2v2c0,0.7,0.4,1.2,1.2,1.2
				S390.8,278.9,390.8,278.2z"/>
			<path class="st4" d="M399.1,281.2V276c0-0.4-0.2-0.6-0.6-0.6c-0.4,0-1.2,0.3-1.7,0.6v5.2h-2.3v-7.9h1.7l0.2,0.6
				c1-0.5,2.2-0.8,3.2-0.8c0.7,0,1.2,0.3,1.4,0.8c0.9-0.4,2.1-0.8,3.2-0.8c1.3,0,1.8,1,1.8,2.5v5.5h-2.3V276c0-0.4-0.2-0.6-0.6-0.6
				c-0.4,0-1.2,0.3-1.7,0.6v5.2H399.1z"/>
		</g>
		<g>
			<path class="st4" d="M344.1,284.2l0,0.6c0,0-0.4,0-0.6,0c-0.5,0-0.6,0.2-0.6,0.7c0,0.6,0.1,0.8,0.6,0.8c0.2,0,0.6,0,0.6,0l0,0.6
				c0,0-0.6,0.1-0.9,0.1c-0.8,0-1.1-0.4-1.1-1.4c0-0.9,0.3-1.4,1.1-1.4C343.6,284.1,344.1,284.2,344.1,284.2z"/>
			<path class="st4" d="M347.2,285.5c0,0.8-0.3,1.4-1.2,1.4c-0.9,0-1.2-0.6-1.2-1.4c0-0.8,0.3-1.4,1.2-1.4
				C346.9,284.1,347.2,284.7,347.2,285.5z M346.5,285.5c0-0.5-0.1-0.8-0.5-0.8s-0.5,0.3-0.5,0.8c0,0.5,0.1,0.8,0.5,0.8
				S346.5,286,346.5,285.5z"/>
			<path class="st4" d="M348.1,286.8v-2.6h0.7v0.1c0,0,0.4-0.2,0.6-0.2c0.3,0,0.5,0.1,0.7,0.2c0,0,0.5-0.2,0.9-0.2
				c0.7,0,0.9,0.4,0.9,1.3v1.4h-0.7v-1.4c0-0.4-0.1-0.7-0.4-0.7c-0.2,0-0.5,0.1-0.5,0.1s0,0.4,0,0.6v1.4h-0.7v-1.4
				c0-0.5,0-0.7-0.4-0.7c-0.2,0-0.5,0.1-0.5,0.1v2H348.1z"/>
			<path class="st4" d="M355.1,284.2v2.6h-0.7v-0.1c0,0-0.4,0.2-0.7,0.2c-0.8,0-0.9-0.4-0.9-1.3v-1.4h0.7v1.4c0,0.5,0,0.7,0.4,0.7
				c0.3,0,0.5-0.1,0.5-0.1v-2H355.1z"/>
			<path class="st4" d="M356,286.8v-2.6h0.7v0.1c0,0,0.4-0.2,0.7-0.2c0.7,0,0.9,0.5,0.9,1.3v1.4h-0.7v-1.4c0-0.4-0.1-0.7-0.4-0.7
				c-0.2,0-0.5,0.1-0.5,0.1v2H356z"/>
			<path class="st4" d="M359.2,283.1h0.7v0.7h-0.7V283.1z M359.2,284.2h0.7v2.6h-0.7V284.2z"/>
			<path class="st4" d="M363.1,286.8h-0.7v-0.1c0,0-0.4,0.2-0.6,0.2c-0.8,0-1-0.5-1-1.4c0-1,0.4-1.4,1.1-1.4c0.2,0,0.6,0.1,0.6,0.1
				v-1.1h0.7V286.8z M362.4,286.2v-1.4c0,0-0.3-0.1-0.5-0.1c-0.3,0-0.4,0.2-0.4,0.8c0,0.5,0.1,0.8,0.4,0.8
				C362.2,286.2,362.4,286.2,362.4,286.2z"/>
			<path class="st4" d="M366.1,286.1c0,0.2,0,0.2,0.2,0.2l0,0.5c-0.4,0-0.5,0-0.8-0.2c0,0-0.4,0.2-0.8,0.2c-0.6,0-0.8-0.3-0.8-0.9
				c0-0.6,0.3-0.8,0.9-0.8l0.6,0V285c0-0.2-0.1-0.3-0.3-0.3c-0.3,0-1,0-1,0l0-0.5c0,0,0.6-0.2,1.1-0.2c0.7,0,1,0.3,1,0.9V286.1z
				 M364.9,285.7c-0.2,0-0.3,0.1-0.3,0.3c0,0.2,0.1,0.3,0.3,0.3c0.2,0,0.5-0.1,0.5-0.1v-0.6L364.9,285.7z"/>
			<path class="st4" d="M369.3,286.8h-0.7v-0.1c0,0-0.4,0.2-0.6,0.2c-0.8,0-1-0.5-1-1.4c0-1,0.4-1.4,1.1-1.4c0.2,0,0.6,0.1,0.6,0.1
				v-1.1h0.7V286.8z M368.6,286.2v-1.4c0,0-0.3-0.1-0.5-0.1c-0.3,0-0.4,0.2-0.4,0.8c0,0.5,0.1,0.8,0.4,0.8
				C368.4,286.2,368.6,286.2,368.6,286.2z"/>
			<path class="st4" d="M374.1,286.8h-0.7v-0.1c0,0-0.4,0.2-0.6,0.2c-0.8,0-1-0.5-1-1.4c0-1,0.4-1.4,1.1-1.4c0.2,0,0.6,0.1,0.6,0.1
				v-1.1h0.7V286.8z M373.4,286.2v-1.4c0,0-0.3-0.1-0.5-0.1c-0.3,0-0.4,0.2-0.4,0.8c0,0.5,0.1,0.8,0.4,0.8
				C373.1,286.2,373.4,286.2,373.4,286.2z"/>
			<path class="st4" d="M377.2,286.2l0,0.5c0,0-0.6,0.1-1.1,0.1c-0.8,0-1.1-0.4-1.1-1.3c0-0.9,0.4-1.4,1.2-1.4
				c0.8,0,1.2,0.4,1.2,1.2l-0.1,0.5h-1.6c0,0.3,0.2,0.5,0.5,0.5C376.6,286.3,377.2,286.2,377.2,286.2z M376.6,285.3
				c0-0.4-0.1-0.6-0.5-0.6c-0.3,0-0.5,0.2-0.5,0.6H376.6z"/>
			<path class="st4" d="M379.7,284.2h0.7v0.1c0,0,0.3-0.2,0.6-0.2c0.7,0,1,0.4,1,1.4c0,1.1-0.4,1.4-1.2,1.4c-0.2,0-0.4,0-0.4,0v1.1
				h-0.7V284.2z M380.4,284.8v1.4c0,0,0.2,0,0.4,0c0.4,0,0.5-0.2,0.5-0.8c0-0.5-0.2-0.7-0.5-0.7
				C380.6,284.7,380.4,284.8,380.4,284.8z"/>
			<path class="st4" d="M382.8,284.2h0.7v0.3c0,0,0.4-0.3,0.8-0.3v0.7c-0.5,0.1-0.8,0.2-0.8,0.2v1.8h-0.7V284.2z"/>
			<path class="st4" d="M387.2,286.2l0,0.5c0,0-0.6,0.1-1.1,0.1c-0.8,0-1.1-0.4-1.1-1.3c0-0.9,0.4-1.4,1.2-1.4
				c0.8,0,1.2,0.4,1.2,1.2l-0.1,0.5h-1.6c0,0.3,0.2,0.5,0.5,0.5C386.7,286.3,387.2,286.2,387.2,286.2z M386.7,282.8l0.2,0.6
				l-1.4,0.4l-0.2-0.5L386.7,282.8z M386.6,285.3c0-0.4-0.1-0.6-0.5-0.6c-0.3,0-0.5,0.2-0.5,0.6H386.6z"/>
			<path class="st4" d="M390.1,284.8c0,0-0.7-0.1-1-0.1c-0.3,0-0.4,0.1-0.4,0.2c0,0.1,0.1,0.1,0.6,0.2c0.6,0.1,0.8,0.3,0.8,0.8
				c0,0.6-0.4,0.9-1.1,0.9c-0.4,0-1-0.1-1-0.1l0-0.6c0,0,0.7,0.1,0.9,0.1c0.3,0,0.4-0.1,0.4-0.2c0-0.1-0.1-0.2-0.5-0.2
				c-0.6-0.1-0.9-0.2-0.9-0.8c0-0.6,0.5-0.9,1-0.9c0.4,0,1,0.1,1,0.1L390.1,284.8z"/>
			<path class="st4" d="M391.8,284.8v1.1c0,0.3,0,0.4,0.2,0.4c0.1,0,0.4,0,0.4,0l0,0.6c0,0-0.4,0.1-0.5,0.1c-0.6,0-0.8-0.2-0.8-1
				v-1.1h-0.3v-0.6h0.3v-0.7h0.7v0.7h0.7v0.6H391.8z"/>
			<path class="st4" d="M395.3,286.1c0,0.2,0,0.2,0.2,0.2l0,0.5c-0.4,0-0.5,0-0.8-0.2c0,0-0.4,0.2-0.8,0.2c-0.6,0-0.8-0.3-0.8-0.9
				c0-0.6,0.3-0.8,0.9-0.8l0.6,0V285c0-0.2-0.1-0.3-0.3-0.3c-0.3,0-1,0-1,0l0-0.5c0,0,0.6-0.2,1.1-0.2c0.7,0,1,0.3,1,0.9V286.1z
				 M394.1,285.7c-0.2,0-0.3,0.1-0.3,0.3c0,0.2,0.1,0.3,0.3,0.3c0.2,0,0.5-0.1,0.5-0.1v-0.6L394.1,285.7z"/>
			<path class="st4" d="M396.3,286.8v-2.6h0.7v0.1c0,0,0.4-0.2,0.6-0.2c0.3,0,0.5,0.1,0.7,0.2c0,0,0.5-0.2,0.9-0.2
				c0.7,0,0.9,0.4,0.9,1.3v1.4h-0.7v-1.4c0-0.4-0.1-0.7-0.4-0.7c-0.2,0-0.5,0.1-0.5,0.1s0,0.4,0,0.6v1.4h-0.7v-1.4
				c0-0.5,0-0.7-0.4-0.7c-0.2,0-0.5,0.1-0.5,0.1v2H396.3z"/>
			<path class="st4" d="M403.3,285.5c0,0.8-0.3,1.4-1.2,1.4c-0.9,0-1.2-0.6-1.2-1.4c0-0.8,0.3-1.4,1.2-1.4
				C403,284.1,403.3,284.7,403.3,285.5z M402.6,285.5c0-0.5-0.1-0.8-0.5-0.8s-0.5,0.3-0.5,0.8c0,0.5,0.1,0.8,0.5,0.8
				S402.6,286,402.6,285.5z"/>
			<path class="st4" d="M406.1,284.8c0,0-0.7-0.1-1-0.1c-0.3,0-0.4,0.1-0.4,0.2c0,0.1,0.1,0.1,0.6,0.2c0.6,0.1,0.8,0.3,0.8,0.8
				c0,0.6-0.4,0.9-1.1,0.9c-0.4,0-1-0.1-1-0.1l0-0.6c0,0,0.7,0.1,0.9,0.1c0.3,0,0.4-0.1,0.4-0.2c0-0.1-0.1-0.2-0.5-0.2
				c-0.6-0.1-0.9-0.2-0.9-0.8c0-0.6,0.5-0.9,1-0.9c0.4,0,1,0.1,1,0.1L406.1,284.8z"/>
		</g>
		<g>
			<path class="st4" d="M408.2,271.8c0.8,0,1.4,0.6,1.4,1.4c0,0.8-0.5,1.4-1.4,1.4c-0.8,0-1.3-0.6-1.3-1.4
				C406.8,272.4,407.4,271.8,408.2,271.8z M408.2,274.1c0.6,0,0.9-0.4,0.9-0.9c0-0.5-0.3-0.9-0.9-0.9c-0.6,0-0.9,0.4-0.9,0.9
				C407.3,273.6,407.6,274.1,408.2,274.1z M408.2,273.3H408v0.4h-0.3v-1.2h0.5c0.3,0,0.4,0.1,0.4,0.4v0.1c0,0.1-0.1,0.3-0.2,0.3
				l0.3,0.5h-0.3L408.2,273.3z M408.4,272.9c0-0.1,0-0.1-0.1-0.1H408v0.3h0.2C408.3,273,408.4,273,408.4,272.9L408.4,272.9z"/>
		</g>
	</g>
	<g>
		<path class="st5" d="M302.2,284.4l0.9-3.2h-0.7l-2.4-7.9h2.4l1.6,5.6l1.6-5.6h2.4l-2.5,7.9l-1,3.2H302.2z"/>
		<path class="st5" d="M308.5,278.1v-1.8c0-1.6,0.8-3.2,3.6-3.2c2.8,0,3.6,1.6,3.6,3.2v1.8c0,1.6-0.8,3.2-3.6,3.2
			C309.3,281.3,308.5,279.8,308.5,278.1z M313.3,278.2v-2c0-0.7-0.4-1.2-1.2-1.2c-0.8,0-1.2,0.4-1.2,1.2v2c0,0.7,0.4,1.2,1.2,1.2
			C312.9,279.4,313.3,278.9,313.3,278.2z"/>
		<path class="st5" d="M297.7,277.4l-1-1l0.7-0.7c0.5-0.5,0.8-1.2,0.8-1.9c0-0.7-0.3-1.4-0.8-1.9l-4.4-4.3c-0.2-0.2-0.4-0.3-0.6-0.4
			v-0.9c0-0.4-0.6-0.6-1.4-0.6c-0.8,0-1.4,0.3-1.4,0.6v0.9c-0.2,0.1-0.3,0.2-0.5,0.4l-4.5,4.5c-1,1-1,2.8,0,3.8l1,1l-0.7,0.7
			c-0.5,0.5-0.8,1.2-0.8,1.9c0,0.7,0.3,1.4,0.8,1.9l4.3,4.3c0.2,0.2,0.3,0.3,0.5,0.4v1c0,0.3,0.6,0.6,1.4,0.6c0.8,0,1.4-0.3,1.4-0.6
			v-1c0.2-0.1,0.4-0.2,0.5-0.4l4.7-4.5C298.7,280.2,298.7,278.5,297.7,277.4z M295.8,279.4l-4.6,4.4c-0.1,0-0.1,0-0.2,0l-4.2-4.2
			c0,0,0-0.1,0-0.1c0,0,0-0.1,0-0.1l0.7-0.7l1,1c0.5,0.5,1.2,0.8,1.9,0.8c0.7,0,1.4-0.3,1.9-0.8l1.3-1.3l-1.8-1.8l-1.3,1.3
			c0,0-0.1,0-0.1,0c0,0-0.1,0-0.1,0l-3.9-3.9c-0.1-0.1-0.1-0.1,0-0.2l4.5-4.4c0,0,0.1,0,0.2,0l4.4,4.3c0,0,0,0.1,0,0.1
			c0,0,0,0.1,0,0.1l-0.7,0.7l-1.2-1.2c-0.5-0.5-1.2-0.8-1.9-0.8s-1.4,0.3-1.9,0.8l-1.3,1.3l1.8,1.8l1.3-1.3c0,0,0.1,0,0.1,0
			c0,0,0.1,0,0.1,0l4,4C295.9,279.3,295.9,279.4,295.8,279.4z"/>
	</g>
</g>
<path class="st6" d="M139.8,163h-34.6c-1.7,0-3.1-1.4-3.1-3.1V91.5c0-1.7,1.4-3.1,3.1-3.1H250c1.7,0,3.1,1.4,3.1,3.1v68.4
	c0,1.7-1.4,3.1-3.1,3.1H147.6"/>
<path class="st7" d="M243.7,138.4v-25.6c-8.7,0-15.7-7-15.7-15.7H127.2c0,8.7-7,15.7-15.7,15.7v25.6c8.7,0,15.7,7,15.7,15.7H228
	C228,145.5,235.1,138.4,243.7,138.4z"/>
<g>
	
		<ellipse transform="matrix(0.5594 -0.8289 0.8289 0.5594 61.4392 317.9613)" class="st0" cx="329.8" cy="101.2" rx="12.4" ry="12.4"/>
	<path class="st0" d="M374.7,106.5l-66.6-44.9c-0.8-0.5-1.9-0.3-2.4,0.5l-21.2,31.4c-0.5,0.8-0.3,1.9,0.5,2.4l66.6,44.9
		c0.8,0.5,1.9,0.3,2.4-0.5l21.2-31.4C375.7,108.1,375.5,107,374.7,106.5z M356.2,127.6c-4-2.7-9.4-1.6-12.1,2.3l-46.4-31.3
		c2.7-4,1.6-9.4-2.3-12.1l7.9-11.8c4,2.7,9.4,1.6,12.1-2.3l46.4,31.3c-2.7,4-1.6,9.4,2.3,12.1L356.2,127.6z"/>
</g>
<g>
	<ellipse transform="matrix(0.8753 -0.4837 0.4837 0.8753 -34.3015 220.3286)" class="st0" cx="410" cy="176.7" rx="8.1" ry="8.1"/>
	<path class="st0" d="M426.5,152l-46.2,25.5c-0.6,0.3-0.8,1-0.4,1.6l12.1,21.8c0.3,0.6,1,0.8,1.6,0.4l46.2-25.5
		c0.6-0.3,0.8-1,0.4-1.6l-12.1-21.8C427.7,151.9,427.1,151.7,426.5,152z M433.3,169.1c-2.8,1.5-3.8,5-2.2,7.8l-32.2,17.8
		c-1.5-2.8-5-3.8-7.8-2.2l-4.5-8.2c2.8-1.5,3.8-5,2.2-7.8l32.2-17.8c1.5,2.8,5,3.8,7.8,2.2L433.3,169.1z"/>
</g>
<circle class="st8" cx="177.6" cy="125.6" r="22.6"/>
<g>
	<path class="st7" d="M183.9,119.5c0-2.8-2.8-5-6.3-5c-3.5,0-6.3,2.3-6.3,5c0,2.8,2.8,5,6.3,5c4.3,0,7.7,2.7,7.7,6.1
		s-3.5,6.1-7.7,6.1c-4.3,0-7.7-2.7-7.7-6.1"/>
	<line class="st7" x1="177.6" y1="111.6" x2="177.6" y2="139.7"/>
</g>
<path class="st9" d="M214.1,227.9c-22.8-6.5-40.7-24.6-46.8-47.5"/>
<polyline class="st9" points="208,211.6 215.9,228 200.2,236.6 "/>
<g>
	
		<ellipse transform="matrix(0.8753 -0.4837 0.4837 0.8753 -120.5254 116.3016)" class="st0" cx="165.2" cy="291.8" rx="8.1" ry="8.1"/>
	<path class="st0" d="M181.7,267.1l-46.2,25.5c-0.6,0.3-0.8,1-0.4,1.6l12.1,21.8c0.3,0.6,1,0.8,1.6,0.4l46.2-25.5
		c0.6-0.3,0.8-1,0.4-1.6l-12.1-21.8C183,267,182.3,266.8,181.7,267.1z M188.5,284.2c-2.8,1.5-3.8,5-2.2,7.8l-32.2,17.8
		c-1.5-2.8-5-3.8-7.8-2.2l-4.5-8.2c2.8-1.5,3.8-5,2.2-7.8l32.2-17.8c1.5,2.8,5,3.8,7.8,2.2L188.5,284.2z"/>
</g>
<rect x="53" y="257.4" transform="matrix(0.7071 -0.7071 0.7071 0.7071 -169.5941 120.3772)" class="st10" width="15" height="15"/>
<rect x="308.7" y="177" transform="matrix(0.7071 -0.7071 0.7071 0.7071 -36.1115 273.4789)" class="st10" width="6.6" height="6.6"/>
<rect x="207.3" y="322.1" transform="matrix(0.7071 -0.7071 0.7071 0.7071 -168.3988 244.2723)" class="st10" width="6.6" height="6.6"/>
</svg>
