<?xml version="1.0" encoding="utf-8"?>
<!-- Generator: Adobe Illustrator 19.2.1, SVG Export Plug-In . SVG Version: 6.00 Build 0)  -->
<svg version="1.1" id="Capa_1" xmlns="http://www.w3.org/2000/svg" xmlns:xlink="http://www.w3.org/1999/xlink" x="0px" y="0px"
	 viewBox="0 0 536 400" style="enable-background:new 0 0 536 400;" xml:space="preserve">
<style type="text/css">
	.st0{fill:#F7F8F5;}
	.st1{fill:#DCF4EC;}
	.st2{fill:#F4F4F4;}
	.st3{fill:none;stroke:#F4F4F4;stroke-miterlimit:10;}
	.st4{fill:#D6D6D6;}
	.st5{fill:#DCF4D8;}
	.st6{opacity:0.5;fill:#CBEEED;}
	.st7{fill:#FFFFFF;stroke:#D2D2D2;stroke-miterlimit:10;}
	.st8{fill:#008E76;}
	.st9{fill:#81838B;}
	.st10{fill:#595959;}
	.st11{fill:#FFFFFF;}
	.st12{fill:none;stroke:#B4B4B4;stroke-width:3;stroke-linecap:round;stroke-miterlimit:10;}
	.st13{fill:#0ABBB8;}
	.st14{fill:none;stroke:#0ABBB8;stroke-miterlimit:10;}
	.st15{fill:none;stroke:#FF6154;stroke-miterlimit:10;}
	.st16{fill:#FF6154;}
	.st17{fill:none;stroke:#0ABBB8;stroke-linecap:round;stroke-linejoin:round;stroke-miterlimit:10;}
	.st18{fill:none;stroke:#DCF4D8;stroke-width:2;stroke-linecap:round;stroke-linejoin:round;stroke-miterlimit:10;}
	.st19{fill:none;stroke:#DCF4D8;stroke-width:2;stroke-miterlimit:10;}
</style>
<g>
	
		<ellipse transform="matrix(0.8753 -0.4837 0.4837 0.8753 -43.6105 233.241)" class="st0" cx="430.4" cy="201.2" rx="8.6" ry="8.6"/>
	<path class="st0" d="M447.9,175l-49,27.1c-0.6,0.3-0.8,1.1-0.5,1.7l12.8,23.1c0.3,0.6,1.1,0.8,1.7,0.5l49-27.1
		c0.6-0.3,0.8-1.1,0.5-1.7l-12.8-23.1C449.2,174.9,448.4,174.7,447.9,175z M455.1,193.1c-2.9,1.6-4,5.3-2.4,8.2l-34.1,18.8
		c-1.6-2.9-5.3-4-8.2-2.4l-4.8-8.6c2.9-1.6,4-5.3,2.4-8.2l34.1-18.8c1.6,2.9,5.3,4,8.2,2.4L455.1,193.1z"/>
</g>
<g>
	<ellipse transform="matrix(0.8753 -0.4837 0.4837 0.8753 -86.3772 113.125)" class="st0" cx="176.1" cy="224" rx="8.6" ry="8.6"/>
	<path class="st0" d="M193.6,197.9l-49,27.1c-0.6,0.3-0.8,1.1-0.5,1.7l12.8,23.1c0.3,0.6,1.1,0.8,1.7,0.5l49-27.1
		c0.6-0.3,0.8-1.1,0.5-1.7l-12.8-23.1C194.9,197.8,194.2,197.5,193.6,197.9z M200.9,216c-2.9,1.6-4,5.3-2.4,8.2l-34.1,18.8
		c-1.6-2.9-5.3-4-8.2-2.4l-4.8-8.6c2.9-1.6,4-5.3,2.4-8.2l34.1-18.8c1.6,2.9,5.3,4,8.2,2.4L200.9,216z"/>
</g>
<rect x="57.2" y="187.6" transform="matrix(0.7071 -0.7071 0.7071 0.7071 -119.1596 103.3463)" class="st1" width="15.9" height="15.9"/>
<rect x="416.6" y="142.8" transform="matrix(0.7071 -0.7071 0.7071 0.7071 17.7697 344.3577)" class="st1" width="15.9" height="15.9"/>
<path class="st2" d="M347.9,150.7H38.1V95c0-1.6,1.3-2.9,2.9-2.9h304.1c1.6,0,2.9,1.3,2.9,2.9V150.7z"/>
<path class="st3" d="M343.1,145.7H33.3V90c0-1.6,1.3-2.9,2.9-2.9h304.1c1.6,0,2.9,1.3,2.9,2.9V145.7z"/>
<path class="st4" d="M346.4,156.2H38.1v-9.2h309.8v7.6C347.9,155.6,347.3,156.2,346.4,156.2z"/>
<path class="st5" d="M145.7,156.2H39.3c-1.1,0-2-0.9-2-2v-7.2h108.3V156.2z"/>
<path class="st6" d="M182.9,147.1h165V95c0-1.6-1.3-2.9-2.9-2.9H182.9V147.1z"/>
<path class="st7" d="M160.7,132H92.5c-1.8,0-3.3-1.5-3.3-3.3v-19.9c0-1.8,1.5-3.3,3.3-3.3h68.2c1.8,0,3.3,1.5,3.3,3.3v19.9
	C164,130.5,162.5,132,160.7,132z"/>
<g>
	<path class="st8" d="M208.4,121.6h-5l-1.7,4.3h-1l4.9-12.4h0.5l4.8,12.4h-1L208.4,121.6z M203.7,120.8h4.4l-1.7-4.4
		c-0.1-0.3-0.3-0.8-0.5-1.4c-0.2,0.5-0.3,1-0.5,1.5L203.7,120.8z"/>
	<path class="st8" d="M219.8,116.8v0.6l-1.9,0.1c0.5,0.6,0.8,1.3,0.8,2.1c0,0.9-0.3,1.6-0.9,2.1c-0.6,0.5-1.4,0.8-2.4,0.8
		c-0.4,0-0.7,0-0.9-0.1c-0.3,0.2-0.6,0.4-0.8,0.6c-0.2,0.2-0.3,0.5-0.3,0.7c0,0.3,0.1,0.5,0.3,0.6c0.2,0.1,0.6,0.2,1.1,0.2h1.6
		c1,0,1.8,0.2,2.3,0.6c0.5,0.4,0.8,1,0.8,1.8c0,1-0.4,1.7-1.2,2.2c-0.8,0.5-1.9,0.8-3.3,0.8c-1.2,0-2-0.2-2.7-0.7
		c-0.6-0.4-0.9-1.1-0.9-1.9c0-0.6,0.2-1.1,0.6-1.6c0.4-0.4,0.9-0.7,1.6-0.8c-0.3-0.1-0.5-0.3-0.7-0.5c-0.2-0.2-0.2-0.5-0.2-0.7
		c0-0.6,0.4-1.1,1.2-1.6c-0.5-0.2-0.9-0.6-1.2-1c-0.3-0.5-0.4-1-0.4-1.6c0-0.9,0.3-1.6,0.9-2.2c0.6-0.6,1.4-0.8,2.4-0.8
		c0.6,0,1.1,0.1,1.4,0.2H219.8z M212.4,127.5c0,1.3,0.9,1.9,2.8,1.9c2.4,0,3.6-0.8,3.6-2.3c0-0.5-0.2-0.9-0.6-1.2
		c-0.4-0.2-1-0.4-1.8-0.4h-1.5C213.2,125.5,212.4,126.2,212.4,127.5z M213.1,119.6c0,0.7,0.2,1.3,0.6,1.6c0.4,0.4,1,0.6,1.7,0.6
		c0.8,0,1.3-0.2,1.8-0.6c0.4-0.4,0.6-0.9,0.6-1.7c0-0.8-0.2-1.4-0.6-1.8c-0.4-0.4-1-0.6-1.8-0.6c-0.7,0-1.3,0.2-1.7,0.6
		C213.3,118.3,213.1,118.9,213.1,119.6z"/>
	<path class="st8" d="M225.2,116.6c0.4,0,0.8,0,1.2,0.1l-0.2,0.8c-0.4-0.1-0.8-0.1-1.2-0.1c-0.8,0-1.4,0.3-1.9,1
		c-0.5,0.7-0.7,1.5-0.7,2.5v5h-0.8v-9.1h0.7l0.1,1.6h0.1c0.4-0.7,0.8-1.1,1.2-1.4C224.1,116.7,224.6,116.6,225.2,116.6z"/>
	<path class="st8" d="M232,126.1c-1.3,0-2.4-0.4-3.1-1.2c-0.7-0.8-1.1-2-1.1-3.4c0-1.5,0.4-2.6,1.1-3.5c0.7-0.9,1.7-1.3,2.9-1.3
		c1.1,0,1.9,0.4,2.5,1.1c0.6,0.8,0.9,1.8,0.9,3.1v0.7h-6.6c0,1.3,0.3,2.2,0.9,2.9c0.6,0.7,1.4,1,2.5,1c0.5,0,1,0,1.4-0.1
		c0.4-0.1,0.9-0.2,1.5-0.5v0.8c-0.5,0.2-1,0.4-1.4,0.5C233.1,126.1,232.6,126.1,232,126.1z M231.8,117.4c-0.9,0-1.6,0.3-2.1,0.9
		c-0.5,0.6-0.8,1.4-0.9,2.5h5.7c0-1.1-0.2-1.9-0.7-2.5C233.2,117.7,232.6,117.4,231.8,117.4z"/>
	<path class="st8" d="M244.9,116.8v0.6l-1.9,0.1c0.5,0.6,0.8,1.3,0.8,2.1c0,0.9-0.3,1.6-0.9,2.1c-0.6,0.5-1.4,0.8-2.4,0.8
		c-0.4,0-0.7,0-0.9-0.1c-0.3,0.2-0.6,0.4-0.8,0.6c-0.2,0.2-0.3,0.5-0.3,0.7c0,0.3,0.1,0.5,0.3,0.6c0.2,0.1,0.6,0.2,1.1,0.2h1.6
		c1,0,1.8,0.2,2.3,0.6c0.5,0.4,0.8,1,0.8,1.8c0,1-0.4,1.7-1.2,2.2c-0.8,0.5-1.9,0.8-3.3,0.8c-1.2,0-2-0.2-2.7-0.7
		c-0.6-0.4-0.9-1.1-0.9-1.9c0-0.6,0.2-1.1,0.6-1.6c0.4-0.4,0.9-0.7,1.6-0.8c-0.3-0.1-0.5-0.3-0.7-0.5c-0.2-0.2-0.2-0.5-0.2-0.7
		c0-0.6,0.4-1.1,1.2-1.6c-0.5-0.2-0.9-0.6-1.2-1c-0.3-0.5-0.4-1-0.4-1.6c0-0.9,0.3-1.6,0.9-2.2c0.6-0.6,1.4-0.8,2.4-0.8
		c0.6,0,1.1,0.1,1.4,0.2H244.9z M237.5,127.5c0,1.3,0.9,1.9,2.8,1.9c2.4,0,3.6-0.8,3.6-2.3c0-0.5-0.2-0.9-0.6-1.2
		c-0.4-0.2-1-0.4-1.8-0.4h-1.5C238.4,125.5,237.5,126.2,237.5,127.5z M238.2,119.6c0,0.7,0.2,1.3,0.6,1.6c0.4,0.4,1,0.6,1.7,0.6
		c0.8,0,1.3-0.2,1.8-0.6s0.6-0.9,0.6-1.7c0-0.8-0.2-1.4-0.6-1.8c-0.4-0.4-1-0.6-1.8-0.6c-0.7,0-1.3,0.2-1.7,0.6
		C238.4,118.3,238.2,118.9,238.2,119.6z"/>
	<path class="st8" d="M252.4,125.9l-0.2-1.4h-0.1c-0.5,0.6-0.9,1-1.4,1.2c-0.5,0.2-1.1,0.4-1.7,0.4c-0.9,0-1.6-0.2-2.1-0.7
		c-0.5-0.5-0.7-1.1-0.7-1.9c0-0.9,0.4-1.6,1.1-2.1s1.8-0.8,3.2-0.8l1.7-0.1V120c0-0.9-0.2-1.5-0.5-2c-0.4-0.4-0.9-0.7-1.7-0.7
		c-0.8,0-1.7,0.2-2.6,0.7l-0.3-0.7c1-0.5,2-0.7,3-0.7c1,0,1.8,0.3,2.3,0.8c0.5,0.5,0.7,1.3,0.7,2.4v6.1H252.4z M249,125.3
		c1,0,1.7-0.3,2.3-0.8c0.6-0.6,0.8-1.3,0.8-2.3v-0.9l-1.6,0.1c-1.3,0.1-2.2,0.3-2.7,0.6c-0.5,0.3-0.8,0.9-0.8,1.6
		c0,0.6,0.2,1,0.5,1.3C247.9,125.2,248.4,125.3,249,125.3z"/>
	<path class="st8" d="M259.5,116.6c0.4,0,0.8,0,1.2,0.1l-0.2,0.8c-0.4-0.1-0.8-0.1-1.2-0.1c-0.8,0-1.4,0.3-1.9,1
		c-0.5,0.7-0.7,1.5-0.7,2.5v5h-0.8v-9.1h0.7l0.1,1.6h0.1c0.4-0.7,0.8-1.1,1.2-1.4C258.4,116.7,258.9,116.6,259.5,116.6z"/>
	<path class="st8" d="M272.7,125.9l-0.2-1.4h-0.1c-0.5,0.6-0.9,1-1.4,1.2c-0.5,0.2-1.1,0.4-1.7,0.4c-0.9,0-1.6-0.2-2.1-0.7
		c-0.5-0.5-0.7-1.1-0.7-1.9c0-0.9,0.4-1.6,1.1-2.1c0.7-0.5,1.8-0.8,3.2-0.8l1.7-0.1V120c0-0.9-0.2-1.5-0.5-2
		c-0.4-0.4-0.9-0.7-1.7-0.7c-0.8,0-1.7,0.2-2.6,0.7l-0.3-0.7c1-0.5,2-0.7,3-0.7c1,0,1.8,0.3,2.3,0.8c0.5,0.5,0.7,1.3,0.7,2.4v6.1
		H272.7z M269.3,125.3c1,0,1.7-0.3,2.3-0.8c0.6-0.6,0.8-1.3,0.8-2.3v-0.9l-1.6,0.1c-1.3,0.1-2.2,0.3-2.7,0.6
		c-0.5,0.3-0.8,0.9-0.8,1.6c0,0.6,0.2,1,0.5,1.3C268.2,125.2,268.7,125.3,269.3,125.3z"/>
	<path class="st8" d="M277.1,125.9h-0.8v-13.1h0.8V125.9z"/>
	<path class="st8" d="M288.3,126.1c-1.3,0-2.3-0.4-3.1-1.2c-0.7-0.8-1.1-2-1.1-3.4c0-1.5,0.4-2.7,1.2-3.5c0.8-0.8,1.8-1.3,3.2-1.3
		c0.8,0,1.5,0.1,2.3,0.4l-0.2,0.7c-0.8-0.3-1.5-0.4-2.1-0.4c-1.1,0-2,0.3-2.6,1c-0.6,0.7-0.9,1.7-0.9,3c0,1.2,0.3,2.2,0.9,2.9
		c0.6,0.7,1.4,1,2.4,1c0.8,0,1.6-0.1,2.3-0.4v0.8C290,126,289.2,126.1,288.3,126.1z"/>
	<path class="st8" d="M298.4,125.9l-0.2-1.4h-0.1c-0.5,0.6-0.9,1-1.4,1.2c-0.5,0.2-1.1,0.4-1.7,0.4c-0.9,0-1.6-0.2-2.1-0.7
		c-0.5-0.5-0.7-1.1-0.7-1.9c0-0.9,0.4-1.6,1.1-2.1s1.8-0.8,3.2-0.8l1.7-0.1V120c0-0.9-0.2-1.5-0.5-2c-0.4-0.4-0.9-0.7-1.7-0.7
		c-0.8,0-1.7,0.2-2.6,0.7l-0.3-0.7c1-0.5,2-0.7,3-0.7c1,0,1.8,0.3,2.3,0.8c0.5,0.5,0.7,1.3,0.7,2.4v6.1H298.4z M295,125.3
		c1,0,1.7-0.3,2.3-0.8c0.6-0.6,0.8-1.3,0.8-2.3v-0.9l-1.6,0.1c-1.3,0.1-2.2,0.3-2.7,0.6c-0.5,0.3-0.8,0.9-0.8,1.6
		c0,0.6,0.2,1,0.5,1.3C293.9,125.2,294.4,125.3,295,125.3z"/>
	<path class="st8" d="M305.5,116.6c0.4,0,0.8,0,1.2,0.1l-0.2,0.8c-0.4-0.1-0.8-0.1-1.2-0.1c-0.8,0-1.4,0.3-1.9,1
		c-0.5,0.7-0.7,1.5-0.7,2.5v5h-0.8v-9.1h0.7l0.1,1.6h0.1c0.4-0.7,0.8-1.1,1.2-1.4C304.4,116.7,304.9,116.6,305.5,116.6z"/>
	<path class="st8" d="M312.3,116.6c0.4,0,0.8,0,1.2,0.1l-0.2,0.8c-0.4-0.1-0.8-0.1-1.2-0.1c-0.8,0-1.4,0.3-1.9,1
		c-0.5,0.7-0.7,1.5-0.7,2.5v5h-0.8v-9.1h0.7l0.1,1.6h0.1c0.4-0.7,0.8-1.1,1.2-1.4C311.1,116.7,311.6,116.6,312.3,116.6z"/>
	<path class="st8" d="M315.2,114.2c0-0.5,0.2-0.8,0.5-0.8c0.2,0,0.3,0.1,0.4,0.2c0.1,0.1,0.1,0.3,0.1,0.6c0,0.3,0,0.5-0.1,0.6
		c-0.1,0.1-0.2,0.2-0.4,0.2C315.4,115.1,315.2,114.8,315.2,114.2z M316.2,125.9h-0.8v-9.1h0.8V125.9z"/>
	<path class="st8" d="M321.7,125.4c0.5,0,1,0,1.4-0.1v0.7c-0.4,0.1-0.9,0.2-1.4,0.2c-0.8,0-1.4-0.2-1.8-0.6c-0.4-0.4-0.6-1.1-0.6-2
		v-5.9h-1.4V117l1.4-0.4l0.4-2.1h0.4v2.2h2.7v0.7h-2.7v5.8c0,0.7,0.1,1.2,0.4,1.6C320.7,125.2,321.1,125.4,321.7,125.4z"/>
	<path class="st8" d="M332.6,121.3c0,1.5-0.4,2.7-1.1,3.5c-0.7,0.8-1.7,1.3-3,1.3c-0.8,0-1.5-0.2-2.1-0.6c-0.6-0.4-1.1-0.9-1.4-1.7
		c-0.3-0.7-0.5-1.6-0.5-2.5c0-1.5,0.4-2.7,1.1-3.5c0.7-0.8,1.7-1.2,3-1.2c1.3,0,2.2,0.4,3,1.3C332.2,118.7,332.6,119.9,332.6,121.3z
		 M325.4,121.3c0,1.3,0.3,2.2,0.8,2.9c0.6,0.7,1.3,1.1,2.3,1.1s1.8-0.4,2.3-1.1c0.6-0.7,0.8-1.7,0.8-2.9c0-1.3-0.3-2.2-0.8-2.9
		c-0.6-0.7-1.3-1-2.4-1c-1,0-1.8,0.3-2.3,1C325.6,119.1,325.4,120.1,325.4,121.3z"/>
</g>
<g>
	<path class="st9" d="M104.4,122.2c0,0.7-0.3,1.4-0.8,1.8c-0.6,0.5-1.3,0.8-2.3,0.9v2h-0.7v-2c-0.5,0-1.1-0.1-1.7-0.2
		c-0.6-0.1-1.1-0.3-1.5-0.4v-0.9c0.4,0.2,0.9,0.4,1.5,0.5c0.6,0.1,1.1,0.2,1.6,0.2V120c-0.8-0.2-1.4-0.5-1.8-0.7
		c-0.4-0.2-0.7-0.5-0.9-0.9c-0.2-0.3-0.3-0.7-0.3-1.2c0-0.7,0.3-1.3,0.8-1.8c0.5-0.5,1.2-0.8,2.1-0.9v-1.6h0.7v1.6
		c1.1,0.1,2.1,0.3,3,0.6l-0.3,0.8c-0.8-0.3-1.7-0.5-2.7-0.6v4.1c1.2,0.4,2,0.8,2.5,1.2C104.1,121,104.4,121.5,104.4,122.2z
		 M98.5,117.1c0,0.5,0.2,0.9,0.5,1.2s0.8,0.6,1.5,0.8v-3.8c-0.7,0.1-1.2,0.3-1.5,0.6C98.7,116.2,98.5,116.6,98.5,117.1z
		 M103.4,122.2c0-0.5-0.2-0.9-0.5-1.2c-0.4-0.3-0.9-0.6-1.7-0.8v4c0.7-0.1,1.2-0.3,1.6-0.6C103.2,123.2,103.4,122.7,103.4,122.2z"/>
	<path class="st9" d="M114.5,125.9h-7.7v-0.7l3.3-3.4c0.9-1,1.6-1.7,1.9-2.2c0.4-0.5,0.6-1,0.8-1.4c0.2-0.5,0.3-0.9,0.3-1.4
		c0-0.7-0.2-1.3-0.7-1.8c-0.5-0.5-1.1-0.7-1.9-0.7c-1,0-2,0.4-2.9,1.1l-0.5-0.6c1-0.9,2.2-1.3,3.4-1.3c1.1,0,1.9,0.3,2.5,0.9
		c0.6,0.6,0.9,1.4,0.9,2.4c0,0.8-0.2,1.6-0.6,2.4c-0.4,0.8-1.2,1.7-2.3,2.8l-3.2,3.2v0h6.6V125.9z"/>
	<path class="st9" d="M124.6,119.8c0,2.2-0.3,3.8-1,4.8c-0.7,1-1.7,1.6-3,1.6c-1.3,0-2.3-0.5-2.9-1.6c-0.7-1.1-1-2.7-1-4.7
		c0-2.1,0.3-3.7,1-4.8c0.6-1,1.6-1.5,3-1.5c1.3,0,2.3,0.5,3,1.6C124.2,116.1,124.6,117.7,124.6,119.8z M117.6,119.8
		c0,1.9,0.2,3.3,0.7,4.2c0.5,0.9,1.3,1.4,2.3,1.4c1.1,0,1.8-0.5,2.3-1.4s0.7-2.3,0.7-4.2c0-1.8-0.2-3.2-0.7-4.1s-1.3-1.4-2.3-1.4
		c-1.1,0-1.8,0.5-2.3,1.4C117.8,116.6,117.6,117.9,117.6,119.8z"/>
	<path class="st9" d="M134.4,119.8c0,2.2-0.3,3.8-1,4.8c-0.7,1-1.7,1.6-3,1.6c-1.3,0-2.3-0.5-2.9-1.6c-0.7-1.1-1-2.7-1-4.7
		c0-2.1,0.3-3.7,1-4.8c0.6-1,1.6-1.5,3-1.5c1.3,0,2.3,0.5,3,1.6C134.1,116.1,134.4,117.7,134.4,119.8z M127.4,119.8
		c0,1.9,0.2,3.3,0.7,4.2c0.5,0.9,1.3,1.4,2.3,1.4c1.1,0,1.8-0.5,2.3-1.4s0.7-2.3,0.7-4.2c0-1.8-0.2-3.2-0.7-4.1s-1.3-1.4-2.3-1.4
		c-1.1,0-1.8,0.5-2.3,1.4S127.4,117.9,127.4,119.8z"/>
</g>
<g>
	<polygon points="289.9,144.7 289.9,144.8 289.8,144.7 	"/>
	<path class="st10" d="M318,150.5l7.1,13.8c-0.7,0.4-1.4,0.8-2,1.2l3,5.9c-0.6,0.4-1.2,0.7-1.8,1c1,2,2,4,3,5.9l-19.9,10.2
		c-0.6-1.2-1.1-2.3-1.7-3.5c-0.4-0.8-0.8-1.6-1.3-2.5l-1.9,1c-0.7-1.3-1.4-2.5-2.2-3.9l-1.9,1l-2-3.9l-2.1,1.1l-2-4l-1.9,1l-1.1-2.1
		l-2,1l-3-5.8l6-3.1l0.9,1.8l2-1l-9.1-17.8l1.9-1l-1-1.9l4-2c0.3,0.6,0.6,1.2,0.9,1.9l-3.9,2l11.2,21.8l-1.9,1l-1-1.9l-2,1l-1.1-2.1
		l-4,2l2,4l1.9-1l1.1,2.1l2.1-1.1l2,4l2-1l2,3.9l1.9-1l2,4l2-1l2,3.9l15.8-8.1l-2-3.9l2-1l-3-5.9l1.9-1c-0.1-0.2-0.2-0.4-0.3-0.6
		c-2.1-4.2-4.2-8.4-6.4-12.6c-0.1-0.2-0.4-0.5-0.6-0.8l-1.8,0.9c-0.3-0.6-0.6-1.2-0.9-1.8c0.6-0.4,1.3-0.6,1.9-1l0.8,1.6
		C316.4,150.9,317.4,150.8,318,150.5z"/>
	<polygon points="289.9,144.7 289.9,144.8 289.9,144.7 	"/>
	<path class="st10" d="M301,151.7l-3.9,2l4,7.8l-2.1,1.1l-0.3-0.7c-2.8-5.5-5.6-11-8.5-16.5c-0.1-0.2-0.2-0.4-0.4-0.6l2.1-1.1
		l4.1,7.9l4-2C300.3,150.3,300.7,151,301,151.7z"/>
	<rect x="301" y="151.7" transform="matrix(0.89 -0.4559 0.4559 0.89 -36.046 153.9364)" width="0" height="0"/>
	<path class="st10" d="M311.9,148.6l1,2c-0.6,0.3-1.3,0.6-2,0.9l3.1,6l-1.9,1l-4.1-8l-4.1,2.1l3,5.9l-1.9,1c-1.3-2.6-2.7-5.2-4-7.8
		c0.6-0.3,1.2-0.7,1.8-1c1.3-0.7,2.6-1.3,4-2c0.3,0.5,0.6,0.9,0.8,1.3c0.2,0.4,0.5,0.4,0.9,0.2C309.6,149.7,310.8,149.2,311.9,148.6
		z"/>
	<polygon points="313,150.6 313,150.6 313,150.6 	"/>
	<path class="st11" d="M316.3,152.2c2.1,4.2,4.2,8.4,6.4,12.6c0.1,0.2,0.2,0.4,0.3,0.6l-1.9,1l3,5.9l-2,1l2,3.9l-15.8,8.1l-2-3.9
		l-2,1l-2-4l-1.9,1l-2-3.9l-2,1l-2-4l-2.1,1.1l-1.1-2.1l-1.9,1l-2-4l4-2l1.1,2.1l2-1l1,1.9l1.9-1L286,146.7l3.9-2l0,0l0,0
		c0.1,0.2,0.3,0.4,0.4,0.6c2.8,5.5,5.6,11,8.5,16.5l0.3,0.7l2.1-1.1l-4-7.8l3.9-2l0,0l0,0c1.3,2.6,2.7,5.2,4,7.8l1.9-1l-3-5.9
		l4.1-2.1l4.1,8l1.9-1l-3.1-6c0.7-0.3,1.4-0.6,2-0.9l0,0c0,0,0,0,0,0c0.3,0.6,0.6,1.2,0.9,1.8l1.8-0.9
		C315.9,151.7,316.3,152.1,316.3,152.2z"/>
	<polygon points="313,150.6 313,150.6 313,150.6 313,150.6 	"/>
</g>
<g>
	<polyline class="st12" points="309.8,238.1 327.6,238.6 327.3,221.5 	"/>
	<line class="st12" x1="306.9" y1="216.4" x2="327.6" y2="238.6"/>
</g>
<g>
	<path class="st13" d="M293.8,275.4c-1.4,0-2.6,0.5-3.4,1.4c-0.8,1-1.2,2.3-1.2,3.9c0,1.7,0.4,3,1.2,4c0.8,0.9,1.9,1.4,3.4,1.4
		c0.9,0,2-0.2,3.1-0.5v1.3c-0.9,0.3-2,0.5-3.4,0.5c-1.9,0-3.4-0.6-4.5-1.8c-1-1.2-1.6-2.8-1.6-5c0-1.3,0.3-2.5,0.8-3.5
		c0.5-1,1.2-1.8,2.2-2.3c1-0.5,2.1-0.8,3.4-0.8c1.4,0,2.6,0.2,3.6,0.8l-0.6,1.3C295.8,275.7,294.8,275.4,293.8,275.4z"/>
	<path class="st13" d="M305.6,287.3l-0.3-1.4h-0.1c-0.5,0.6-1,1-1.5,1.2c-0.5,0.2-1.1,0.3-1.8,0.3c-1,0-1.7-0.3-2.3-0.8
		s-0.8-1.2-0.8-2.1c0-2,1.6-3,4.7-3.1l1.7-0.1v-0.6c0-0.8-0.2-1.3-0.5-1.7c-0.3-0.4-0.9-0.6-1.6-0.6c-0.8,0-1.7,0.3-2.8,0.8
		l-0.5-1.1c0.5-0.3,1-0.5,1.6-0.6c0.6-0.1,1.2-0.2,1.7-0.2c1.2,0,2,0.3,2.6,0.8c0.6,0.5,0.8,1.4,0.8,2.5v6.7H305.6z M302.2,286.3
		c0.9,0,1.6-0.3,2.2-0.8c0.5-0.5,0.8-1.2,0.8-2.1v-0.9l-1.5,0.1c-1.2,0-2,0.2-2.6,0.6c-0.5,0.3-0.8,0.8-0.8,1.5
		c0,0.5,0.2,0.9,0.5,1.2C301.2,286.1,301.6,286.3,302.2,286.3z"/>
	<path class="st13" d="M314.2,277.4c0.4,0,0.8,0,1.2,0.1l-0.2,1.4c-0.4-0.1-0.8-0.1-1.1-0.1c-0.8,0-1.5,0.3-2,1
		c-0.6,0.6-0.8,1.4-0.8,2.4v5.3h-1.5v-9.8h1.2l0.2,1.8h0.1c0.4-0.6,0.8-1.1,1.3-1.5C313,277.5,313.6,277.4,314.2,277.4z"/>
	<path class="st13" d="M321.7,277.4c0.4,0,0.8,0,1.2,0.1l-0.2,1.4c-0.4-0.1-0.8-0.1-1.1-0.1c-0.8,0-1.5,0.3-2,1
		c-0.6,0.6-0.8,1.4-0.8,2.4v5.3h-1.5v-9.8h1.2l0.2,1.8h0.1c0.4-0.6,0.8-1.1,1.3-1.5C320.5,277.5,321.1,277.4,321.7,277.4z"/>
	<path class="st13" d="M324.6,274.9c0-0.3,0.1-0.6,0.3-0.7c0.2-0.2,0.4-0.2,0.6-0.2c0.2,0,0.4,0.1,0.6,0.2c0.2,0.2,0.3,0.4,0.3,0.7
		c0,0.3-0.1,0.6-0.3,0.7c-0.2,0.2-0.4,0.2-0.6,0.2c-0.3,0-0.5-0.1-0.6-0.2C324.6,275.5,324.6,275.2,324.6,274.9z M326.2,287.3h-1.5
		v-9.8h1.5V287.3z"/>
	<path class="st13" d="M332.5,286.3c0.3,0,0.5,0,0.8-0.1s0.4-0.1,0.6-0.1v1.1c-0.2,0.1-0.4,0.1-0.7,0.2c-0.3,0.1-0.6,0.1-0.8,0.1
		c-1.9,0-2.8-1-2.8-3v-5.8H328V278l1.4-0.6l0.6-2.1h0.9v2.3h2.8v1.2h-2.8v5.8c0,0.6,0.1,1,0.4,1.4
		C331.6,286.1,332,286.3,332.5,286.3z"/>
	<path class="st13" d="M344.2,282.4c0,1.6-0.4,2.8-1.2,3.7c-0.8,0.9-1.9,1.3-3.3,1.3c-0.9,0-1.7-0.2-2.3-0.6c-0.7-0.4-1.2-1-1.6-1.8
		c-0.4-0.8-0.6-1.7-0.6-2.7c0-1.6,0.4-2.8,1.2-3.7c0.8-0.9,1.9-1.3,3.3-1.3c1.4,0,2.5,0.5,3.3,1.4
		C343.8,279.6,344.2,280.9,344.2,282.4z M336.8,282.4c0,1.3,0.3,2.2,0.8,2.9c0.5,0.7,1.2,1,2.2,1c1,0,1.7-0.3,2.2-1
		c0.5-0.7,0.8-1.6,0.8-2.9c0-1.2-0.3-2.2-0.8-2.8c-0.5-0.6-1.2-1-2.2-1c-1,0-1.7,0.3-2.2,1C337,280.2,336.8,281.2,336.8,282.4z"/>
	<path class="st13" d="M358.3,286L358.3,286c-0.8,1-1.8,1.5-3.2,1.5c-1.3,0-2.3-0.4-3-1.3c-0.7-0.9-1.1-2.1-1.1-3.7
		c0-1.6,0.4-2.9,1.1-3.8c0.7-0.9,1.7-1.3,3-1.3c1.3,0,2.3,0.5,3.1,1.4h0.1l-0.1-0.7l0-0.7v-4h1.5v13.9h-1.2L358.3,286z M355.3,286.3
		c1,0,1.7-0.3,2.2-0.8c0.5-0.6,0.7-1.4,0.7-2.7v-0.3c0-1.4-0.2-2.4-0.7-3s-1.2-0.9-2.2-0.9c-0.9,0-1.5,0.3-2,1
		c-0.5,0.7-0.7,1.6-0.7,2.9c0,1.3,0.2,2.2,0.7,2.8C353.7,286,354.4,286.3,355.3,286.3z"/>
	<path class="st13" d="M367,287.5c-1.4,0-2.6-0.4-3.4-1.3c-0.8-0.9-1.3-2.1-1.3-3.7c0-1.6,0.4-2.8,1.2-3.8c0.8-0.9,1.8-1.4,3.1-1.4
		c1.2,0,2.2,0.4,2.9,1.2c0.7,0.8,1.1,1.9,1.1,3.2v0.9h-6.7c0,1.2,0.3,2,0.9,2.6c0.6,0.6,1.3,0.9,2.3,0.9c1.1,0,2.1-0.2,3.1-0.7v1.3
		c-0.5,0.2-1,0.4-1.5,0.5C368.2,287.5,367.6,287.5,367,287.5z M366.6,278.6c-0.8,0-1.4,0.3-1.9,0.8c-0.5,0.5-0.7,1.2-0.8,2.1h5.1
		c0-0.9-0.2-1.7-0.6-2.1C367.9,278.8,367.3,278.6,366.6,278.6z"/>
	<path class="st13" d="M382.4,287.5c-0.6,0-1.2-0.1-1.7-0.4c-0.5-0.2-1-0.6-1.3-1.1h-0.1c0.1,0.6,0.1,1.1,0.1,1.6v4h-1.5v-14.2h1.2
		l0.2,1.3h0.1c0.4-0.5,0.8-0.9,1.3-1.2c0.5-0.2,1.1-0.4,1.7-0.4c1.3,0,2.3,0.4,3,1.3c0.7,0.9,1.1,2.1,1.1,3.7c0,1.6-0.4,2.9-1.1,3.8
		C384.7,287.1,383.7,287.5,382.4,287.5z M382.2,278.6c-1,0-1.7,0.3-2.2,0.8c-0.4,0.6-0.7,1.4-0.7,2.6v0.3c0,1.4,0.2,2.4,0.7,3
		c0.5,0.6,1.2,0.9,2.2,0.9c0.8,0,1.5-0.3,2-1c0.5-0.7,0.7-1.6,0.7-2.8c0-1.2-0.2-2.2-0.7-2.8C383.7,278.9,383.1,278.6,382.2,278.6z"
		/>
	<path class="st13" d="M393.5,277.4c0.4,0,0.8,0,1.2,0.1l-0.2,1.4c-0.4-0.1-0.8-0.1-1.1-0.1c-0.8,0-1.5,0.3-2,1
		c-0.6,0.6-0.8,1.4-0.8,2.4v5.3h-1.5v-9.8h1.2l0.2,1.8h0.1c0.4-0.6,0.8-1.1,1.3-1.5C392.4,277.5,392.9,277.4,393.5,277.4z"/>
	<path class="st13" d="M400.7,287.5c-1.4,0-2.6-0.4-3.4-1.3c-0.8-0.9-1.3-2.1-1.3-3.7c0-1.6,0.4-2.8,1.2-3.8
		c0.8-0.9,1.8-1.4,3.1-1.4c1.2,0,2.2,0.4,2.9,1.2c0.7,0.8,1.1,1.9,1.1,3.2v0.9h-6.7c0,1.2,0.3,2,0.9,2.6c0.6,0.6,1.3,0.9,2.3,0.9
		c1.1,0,2.1-0.2,3.1-0.7v1.3c-0.5,0.2-1,0.4-1.5,0.5C401.9,287.5,401.3,287.5,400.7,287.5z M400.3,278.6c-0.8,0-1.4,0.3-1.9,0.8
		c-0.5,0.5-0.7,1.2-0.8,2.1h5.1c0-0.9-0.2-1.7-0.6-2.1C401.6,278.8,401,278.6,400.3,278.6z M399.2,276c0.3-0.4,0.6-0.8,0.9-1.3
		c0.3-0.5,0.6-1,0.8-1.4h1.8v0.2c-0.3,0.4-0.7,0.9-1.2,1.4c-0.5,0.6-1,1-1.4,1.3h-1V276z"/>
	<path class="st13" d="M413.1,284.7c0,0.9-0.3,1.6-1,2.1c-0.7,0.5-1.6,0.7-2.9,0.7c-1.3,0-2.3-0.2-3-0.6v-1.4c0.5,0.2,1,0.4,1.5,0.6
		c0.5,0.1,1.1,0.2,1.6,0.2c0.8,0,1.4-0.1,1.8-0.4c0.4-0.2,0.6-0.6,0.6-1.1c0-0.4-0.2-0.7-0.5-1s-1-0.6-1.9-1
		c-0.9-0.3-1.6-0.6-1.9-0.9c-0.4-0.3-0.7-0.5-0.9-0.9c-0.2-0.3-0.3-0.7-0.3-1.2c0-0.8,0.3-1.4,1-1.9s1.5-0.7,2.7-0.7
		c1.1,0,2.1,0.2,3.1,0.6l-0.5,1.2c-1-0.4-1.9-0.6-2.7-0.6c-0.7,0-1.2,0.1-1.6,0.3c-0.4,0.2-0.5,0.5-0.5,0.9c0,0.3,0.1,0.5,0.2,0.7
		c0.1,0.2,0.3,0.4,0.6,0.5c0.3,0.2,0.9,0.4,1.7,0.7c1.2,0.4,1.9,0.8,2.4,1.3C412.9,283.5,413.1,284,413.1,284.7z"/>
	<path class="st13" d="M418.7,286.3c0.3,0,0.5,0,0.8-0.1c0.2,0,0.4-0.1,0.6-0.1v1.1c-0.2,0.1-0.4,0.1-0.7,0.2
		c-0.3,0.1-0.6,0.1-0.8,0.1c-1.9,0-2.8-1-2.8-3v-5.8h-1.4V278l1.4-0.6l0.6-2.1h0.9v2.3h2.8v1.2h-2.8v5.8c0,0.6,0.1,1,0.4,1.4
		C417.8,286.1,418.2,286.3,418.7,286.3z"/>
	<path class="st13" d="M428,287.3l-0.3-1.4h-0.1c-0.5,0.6-1,1-1.5,1.2c-0.5,0.2-1.1,0.3-1.8,0.3c-1,0-1.7-0.3-2.3-0.8
		c-0.6-0.5-0.8-1.2-0.8-2.1c0-2,1.6-3,4.7-3.1l1.7-0.1v-0.6c0-0.8-0.2-1.3-0.5-1.7c-0.3-0.4-0.9-0.6-1.6-0.6c-0.8,0-1.7,0.3-2.8,0.8
		l-0.5-1.1c0.5-0.3,1-0.5,1.6-0.6c0.6-0.1,1.2-0.2,1.7-0.2c1.2,0,2,0.3,2.6,0.8c0.6,0.5,0.8,1.4,0.8,2.5v6.7H428z M424.7,286.3
		c0.9,0,1.6-0.3,2.2-0.8c0.5-0.5,0.8-1.2,0.8-2.1v-0.9l-1.5,0.1c-1.2,0-2,0.2-2.6,0.6c-0.5,0.3-0.8,0.8-0.8,1.5
		c0,0.5,0.2,0.9,0.5,1.2C423.6,286.1,424.1,286.3,424.7,286.3z"/>
	<path class="st13" d="M444.7,287.3V281c0-0.8-0.2-1.4-0.5-1.8c-0.3-0.4-0.9-0.6-1.6-0.6c-0.9,0-1.6,0.3-2,0.8
		c-0.4,0.5-0.7,1.3-0.7,2.4v5.5h-1.5V281c0-0.8-0.2-1.4-0.5-1.8c-0.3-0.4-0.9-0.6-1.6-0.6c-0.9,0-1.6,0.3-2,0.8
		c-0.4,0.6-0.6,1.5-0.6,2.7v5.1h-1.5v-9.8h1.2l0.2,1.3h0.1c0.3-0.5,0.7-0.8,1.2-1.1c0.5-0.3,1.1-0.4,1.7-0.4c1.5,0,2.5,0.6,3,1.7
		h0.1c0.3-0.5,0.7-0.9,1.3-1.2c0.6-0.3,1.2-0.4,1.9-0.4c1.1,0,1.9,0.3,2.5,0.9c0.6,0.6,0.8,1.5,0.8,2.7v6.4H444.7z"/>
	<path class="st13" d="M457.7,282.4c0,1.6-0.4,2.8-1.2,3.7c-0.8,0.9-1.9,1.3-3.3,1.3c-0.9,0-1.7-0.2-2.3-0.6c-0.7-0.4-1.2-1-1.6-1.8
		s-0.6-1.7-0.6-2.7c0-1.6,0.4-2.8,1.2-3.7c0.8-0.9,1.9-1.3,3.3-1.3c1.4,0,2.5,0.5,3.3,1.4C457.3,279.6,457.7,280.9,457.7,282.4z
		 M450.2,282.4c0,1.3,0.3,2.2,0.8,2.9c0.5,0.7,1.2,1,2.2,1c1,0,1.7-0.3,2.2-1c0.5-0.7,0.8-1.6,0.8-2.9c0-1.2-0.3-2.2-0.8-2.8
		c-0.5-0.6-1.2-1-2.2-1c-1,0-1.7,0.3-2.2,1S450.2,281.2,450.2,282.4z"/>
	<path class="st13" d="M466.6,284.7c0,0.9-0.3,1.6-1,2.1c-0.7,0.5-1.6,0.7-2.9,0.7c-1.3,0-2.3-0.2-3-0.6v-1.4c0.5,0.2,1,0.4,1.5,0.6
		c0.5,0.1,1.1,0.2,1.6,0.2c0.8,0,1.4-0.1,1.8-0.4c0.4-0.2,0.6-0.6,0.6-1.1c0-0.4-0.2-0.7-0.5-1s-1-0.6-1.9-1
		c-0.9-0.3-1.6-0.6-1.9-0.9c-0.4-0.3-0.7-0.5-0.9-0.9c-0.2-0.3-0.3-0.7-0.3-1.2c0-0.8,0.3-1.4,1-1.9s1.5-0.7,2.7-0.7
		c1.1,0,2.1,0.2,3.1,0.6l-0.5,1.2c-1-0.4-1.9-0.6-2.7-0.6c-0.7,0-1.2,0.1-1.6,0.3c-0.4,0.2-0.5,0.5-0.5,0.9c0,0.3,0.1,0.5,0.2,0.7
		c0.1,0.2,0.3,0.4,0.6,0.5c0.3,0.2,0.9,0.4,1.7,0.7c1.2,0.4,1.9,0.8,2.4,1.3C466.4,283.5,466.6,284,466.6,284.7z"/>
</g>
<path class="st14" d="M489.6,302H249.1c-1.7,0-3-1.4-3-3v-35.8c0-1.7,1.3-3,3-3h240.5c1.6,0,3,1.3,3,3V299
	C492.6,300.7,491.3,302,489.6,302z"/>
<circle class="st11" cx="490.2" cy="260.5" r="14.4"/>
<circle class="st15" cx="490.2" cy="260.5" r="11.6"/>
<g>
	<path class="st16" d="M493.4,265.7h-7.2c0.1-3.3,3.4-4.1,5.3-5.9c0.6-0.6,0.9-1.2,0.9-2.1c0-1.4-1.1-2.2-2.5-2.2
		c-1.8,0-2.5,1.4-2.5,3.1h-1c0-2.3,1.1-3.9,3.5-3.9c1.9,0,3.4,1.1,3.4,3.1c0,1.8-1.3,3-2.8,3.9c-1.1,0.7-3,1.7-3.3,3.2h6.1V265.7z"
		/>
</g>
<g>
	<g>
		<circle class="st17" cx="260.3" cy="289.5" r="1.9"/>
		<circle class="st17" cx="272.9" cy="289.5" r="1.9"/>
		<polyline class="st17" points="277.8,274.5 273.4,284.9 258.8,284.9 258.8,274.5 		"/>
		<line class="st17" x1="260.5" y1="287.2" x2="260.5" y2="284.9"/>
		<line class="st17" x1="270.9" y1="289.5" x2="262.2" y2="289.5"/>
		<polyline class="st17" points="255.5,271.2 258.8,271.2 258.8,274.5 		"/>
		<path class="st14" d="M261.1,274.1"/>
		<line class="st17" x1="261.7" y1="274.1" x2="274.2" y2="274.1"/>
		<line class="st17" x1="261.7" y1="277.7" x2="272.4" y2="277.7"/>
		<line class="st17" x1="261.7" y1="281.3" x2="270.8" y2="281.3"/>
	</g>
</g>
<g>
	<circle class="st18" cx="168" cy="323.5" r="3.3"/>
	<circle class="st18" cx="189.7" cy="323.5" r="3.3"/>
	<polyline class="st18" points="198.2,297.6 190.6,315.5 165.5,315.5 165.5,297.6 	"/>
	<line class="st18" x1="168.4" y1="319.4" x2="168.4" y2="315.5"/>
	<line class="st18" x1="186.4" y1="323.5" x2="171.3" y2="323.5"/>
	<polyline class="st18" points="159.6,291.8 165.5,291.8 165.5,297.6 	"/>
	<path class="st18" d="M169.4,296.9"/>
	<line class="st18" x1="170.4" y1="296.9" x2="192" y2="296.9"/>
	<line class="st18" x1="170.4" y1="303.1" x2="189" y2="303.1"/>
	<line class="st18" x1="170.4" y1="309.3" x2="186.2" y2="309.3"/>
</g>
<g>
	<g>
		<circle class="st18" cx="406.4" cy="104.9" r="3.3"/>
		<circle class="st18" cx="428.1" cy="104.9" r="3.3"/>
		<polyline class="st18" points="436.6,79 429,96.9 403.9,96.9 403.9,79 		"/>
		<line class="st18" x1="406.8" y1="100.9" x2="406.8" y2="96.9"/>
		<line class="st18" x1="424.8" y1="104.9" x2="409.7" y2="104.9"/>
		<polyline class="st18" points="398,73.2 403.9,73.2 403.9,79 		"/>
		<path class="st19" d="M407.8,78.3"/>
		<line class="st18" x1="408.8" y1="78.3" x2="430.4" y2="78.3"/>
		<line class="st18" x1="408.8" y1="84.5" x2="427.4" y2="84.5"/>
		<line class="st18" x1="408.8" y1="90.7" x2="424.6" y2="90.7"/>
	</g>
</g>
</svg>
