<?xml version="1.0" encoding="utf-8"?>
<!-- Generator: Adobe Illustrator 19.2.1, SVG Export Plug-In . SVG Version: 6.00 Build 0)  -->
<svg version="1.1" id="Capa_1" xmlns="http://www.w3.org/2000/svg" xmlns:xlink="http://www.w3.org/1999/xlink" x="0px" y="0px"
	 viewBox="0 0 100 100" style="enable-background:new 0 0 100 100;" xml:space="preserve">
<style type="text/css">
	.st0{fill:#BCBCBC;}
</style>
<path class="st0" d="M10.2,62.6v20.3c0,1.1,0.9,1.9,1.9,1.9h9.1c1.1,0,1.9-0.9,1.9-1.9V62.6c0-1.1-0.9-1.9-1.9-1.9h-9.1
	C11,60.7,10.2,61.5,10.2,62.6z"/>
<path class="st0" d="M32.6,27.1l0,55.8c0,1.1,0.9,1.9,1.9,1.9h9.1c1.1,0,1.9-0.9,1.9-1.9V27.1c0-1.1-0.9-1.9-1.9-1.9h-9.1
	C33.5,25.2,32.6,26,32.6,27.1z"/>
<path class="st0" d="M53.5,35.9v47c0,1.1,0.9,1.9,1.9,1.9h9.1c1.1,0,1.9-0.9,1.9-1.9v-47c0-1.1-0.9-1.9-1.9-1.9h-9.1
	C54.4,34,53.5,34.9,53.5,35.9z"/>
<path class="st0" d="M76.9,62.6v20.3c0,1.1,0.9,1.9,1.9,1.9h9.1c1.1,0,1.9-0.9,1.9-1.9V62.6c0-1.1-0.9-1.9-1.9-1.9h-9.1
	C77.8,60.7,76.9,61.5,76.9,62.6z"/>
</svg>
