<?xml version="1.0" encoding="utf-8"?>
<!-- Generator: Adobe Illustrator 19.2.1, SVG Export Plug-In . SVG Version: 6.00 Build 0)  -->
<svg version="1.1" id="Capa_1" xmlns="http://www.w3.org/2000/svg" xmlns:xlink="http://www.w3.org/1999/xlink" x="0px" y="0px"
	 viewBox="0 0 62 62" style="enable-background:new 0 0 62 62;" xml:space="preserve">
<style type="text/css">
	.st0{fill:#FF6154;}
</style>
<g>
	<g>
		<path class="st0" d="M43.4,44.9c-0.4,0-0.8-0.1-1.1-0.4L17.5,19.7c-0.6-0.6-0.6-1.5,0-2.1c0.6-0.6,1.5-0.6,2.1,0l24.8,24.8
			c0.6,0.6,0.6,1.5,0,2.1C44.2,44.8,43.8,44.9,43.4,44.9z"/>
	</g>
</g>
<g>
	<g>
		<path class="st0" d="M18.6,44.9c-0.4,0-0.8-0.1-1.1-0.4c-0.6-0.6-0.6-1.5,0-2.1l24.8-24.8c0.6-0.6,1.5-0.6,2.1,0
			c0.6,0.6,0.6,1.5,0,2.1L19.7,44.5C19.4,44.8,19,44.9,18.6,44.9z"/>
	</g>
</g>
<g>
	<path class="st0" d="M31,60.3C14.8,60.3,1.7,47.2,1.7,31S14.8,1.7,31,1.7S60.3,14.8,60.3,31S47.2,60.3,31,60.3z M31,4.9
		C16.6,4.9,4.9,16.6,4.9,31S16.6,57.1,31,57.1S57.1,45.4,57.1,31S45.4,4.9,31,4.9z"/>
</g>
</svg>
