<?xml version="1.0" encoding="utf-8"?>
<!-- Generator: Adobe Illustrator 19.2.1, SVG Export Plug-In . SVG Version: 6.00 Build 0)  -->
<svg version="1.1" id="Capa_1" xmlns="http://www.w3.org/2000/svg" xmlns:xlink="http://www.w3.org/1999/xlink" x="0px" y="0px"
	 viewBox="0 0 62 62" style="enable-background:new 0 0 62 62;" xml:space="preserve">
<style type="text/css">
	.st0{fill:#00AE76;}
</style>
<g>
	<g>
		<path class="st0" d="M29.9,49.6c-0.3-0.3-0.5-0.6-0.5-1.1l0-35.1c0-0.8,0.6-1.5,1.5-1.5c0.8,0,1.5,0.6,1.5,1.5v35.1
			c0,0.8-0.6,1.5-1.5,1.5C30.6,50.1,30.2,49.9,29.9,49.6z"/>
	</g>
</g>
<g>
	<g>
		<path class="st0" d="M12.4,32.1c-0.3-0.3-0.5-0.6-0.5-1.1c0-0.8,0.6-1.5,1.5-1.5h35.1c0.8,0,1.5,0.6,1.5,1.5
			c0,0.8-0.6,1.5-1.5,1.5l-35,0.1C13,32.6,12.7,32.4,12.4,32.1z"/>
	</g>
</g>
</svg>
